<svg width="132" height="98" viewBox="0 0 132 98" xmlns="http://www.w3.org/2000/svg" xmlns:xlink="http://www.w3.org/1999/xlink"><title>Group 3 Copy</title><defs><linearGradient x1="0" y1="50%" x2="100%" y2="50%" id="linearGradient-1"><stop stop-color="#dc3424" offset="0"/><stop stop-color="#cc1a1a" offset="100%"/></linearGradient><linearGradient x1="27.3997551%" y1="12.6422701%" x2="64.7435016%" y2="93.7483185%" id="linearGradient-2"><stop stop-color="#438cff" offset="0"/><stop stop-color="#2865e7" offset="100%"/></linearGradient><linearGradient x1="50%" y1="5.94217561%" x2="50%" y2="163.267868%" id="linearGradient-3"><stop stop-color="#78acff" offset="0"/><stop stop-color="#b7d3ff" offset="100%"/></linearGradient><linearGradient x1="50%" y1="-35.4216051%" x2="50%" y2="31.6429394%" id="linearGradient-4"><stop stop-color="#6ea6fe" offset="0"/><stop stop-color="#cadfff" offset="100%"/></linearGradient><linearGradient x1="43.126397%" y1="36.2884842%" x2="50%" y2="61.574091%" id="linearGradient-5"><stop stop-color="#95beff" offset="0"/><stop stop-color="#438cff" offset="100%"/></linearGradient><path d="M19.307234 2.45665653C20.6274392 2.95554225 21.4889029 3.97184957 21.8916251 5.50557848 22.3040733 7.07634771 22.8473627 10.1293114 23.4823645 11.4651947 23.8422591 12.222322 24.4951349 12.5027166 25.4409918 12.3063785 29.7015295 10.8331103 32.1460603 10.0964762 32.7745842 10.0964762 33.6760914 10.0964762 34.8824962 10.7185919 35.3040604 12.6787748 35.4317135 13.2723347 35.2845285 13.8460331 34.8625052 14.3998701 35.0905617 14.5343561 35.2377468 14.6521932 35.3040604 14.7533814 35.370374 14.8545697 35.4151962 15.0297174 35.4385271 15.2788247L1.87601343 26.7802047C1.64483536 26.8436534 1.43152512 26.8049428 1.2360827 26.6640728.942919063 26.4527678-.619625497 23.700053.94435592 21.1685015 1.48933912 20.28636 2.28274248 19.6587735 3.32456601 19.2857421L10.9658364 16.8241011C12.3887257 16.1099476 12.4181924 14.2548941 11.0542366 11.2589408 9.67070132 8.21998085 9.71725222 6.02869262 11.1938893 4.68507607 10.6667726 2.43861307 11.7532147.96277798 14.4532154.257570792 16.8864977-.377972817 18.5045039.355055762 19.307234 2.45665653zM15.3481867 1.82676136C14.6741699 1.82676136 14.1277713 2.37966105 14.1277713 3.06169737 14.1277713 3.7437337 14.6741699 4.29663339 15.3481867 4.29663339 16.0222035 4.29663339 16.5686021 3.7437337 16.5686021 3.06169737 16.5686021 2.37966105 16.0222035 1.82676136 15.3481867 1.82676136z" id="path-6"/></defs><g id="新页面" stroke="none" stroke-width="1" fill="none" fill-rule="evenodd"><g id="审核拒绝" transform="translate(-114.000000, -130.000000)"><g id="Group-3-Copy" transform="translate(114.000000, 130.000000)"><g id="Group" transform="translate(93.000000, 7.000000)"><path d="M24.5973817 33.8006023C33.8378225 33.8006023 38.6324195 26.2340797 35.3064138 16.9003011 31.9804081 7.56652255 21.7932904.0 12.5528496.0 3.31240881.0-1.48218817 7.56652255 1.84381751 16.9003011 5.1698232 26.2340797 15.3569409 33.8006023 24.5973817 33.8006023z" id="Oval" fill="url(#linearGradient-1)"/><path d="M19.7256215 6.22800865 23.3198895 8.16031649C23.8161544 8.42711253 24.1332152 9.08983622 24.0280647 9.64055129L20.6010126 27.5893923C20.4958622 28.1401074 20.0083187 28.3702693 19.5120539 28.1034732L15.9177859 26.1711654C15.421521 25.9043693 15.1044602 25.2416456 15.2096107 24.6909306L18.6366628 6.74208952C18.7418132 6.19137446 19.2293567 5.96121261 19.7256215 6.22800865z" id="Rectangle" fill="#fff"/><path d="M19.8346789 6.14203427 23.4289469 8.07434212C23.9252118 8.34113816 24.2422726 9.00386185 24.1371221 9.55457692L20.71007 27.503418C20.6049196 28.054133 20.1173761 28.2842949 19.6211113 28.0174989L16.0268433 26.085191C15.5305784 25.818395 15.2135176 25.1556713 15.3186681 24.6049562L18.7457202 6.65611515C18.8508706 6.10540008 19.3384141 5.87523823 19.8346789 6.14203427z" id="Rectangle" fill="#fff" transform="translate(19.727895, 17.079767) scale(-1, 1) rotate(54.000000) translate(-19.727895, -17.079767)"/></g><path d="M31.5658562 20.8742231 76.7046049 8.64201341C78.5639037 8.13815958 80.5182353 9.03111451 81.3543809 10.7665455L110.745685 71.7685777C112.184017 74.7538527 110.929971 78.3398942 107.944696 79.7782254 107.688881 79.901479 107.42464 80.006417 107.153964 80.0922481L57.1044887 95.962885C52.9860106 97.2688501 48.5746821 95.0687243 47.1401736 90.9932376L26.1121311 31.2518672C24.6451849 27.0842241 26.8345324 22.5164869 31.0021755 21.0495407 31.1878482 20.9841867 31.3758698 20.9257077 31.5658562 20.8742231z" id="Rectangle" fill="url(#linearGradient-2)"/><path d="M31.6571877 19.9282686 77.5809784 7.63631449C79.4511698 7.13573938 81.4114057 8.04638805 82.2351136 9.798443L111.548223 72.1484337C112.488131 74.1476505 111.629392 76.530282 109.630175 77.4701901 109.472962 77.5441021 109.311101 77.6076938 109.145619 77.6605614L56.3056273 94.541775C53.2205363 95.5273936 49.9100135 93.8867384 48.825845 90.834885L26.870955 29.0335121C25.5768006 25.3905643 27.4808738 21.3882523 31.1238216 20.0940979 31.2993333 20.0317475 31.4772636 19.976427 31.6571877 19.9282686z" id="Rectangle" fill="url(#linearGradient-3)" fill-rule="nonzero"/><path d="M111.534905 73.8056185C107.12792 75.5687029 103.988794 76.7074999 102.117528 77.2220095 83.0463823 82.4656702 67.348161 85.4172911 55.0228638 86.076872L31 25.6655639 79.5001332 12C80.6078862 15.8690514 83.6616956 22.5661183 88.6615614 32.0912007 93.6614272 41.6162831 101.285875 55.5210891 111.534905 73.8056185z" id="Path-12" fill="url(#linearGradient-4)" fill-rule="nonzero"/><path d="M115 69.0885874C104.189831 71.9686947 94.7254805 73.9444381 86.6069491 75.0158178 81.5283016 75.6860326 69.7485131 77.4092292 61.913453 76.9108269 58.8077453 76.7132672 54.2258733 74.204515 53.5379377 73.4560203 49.9174241 69.5167926 42.4047782 53.6068584 31 25.7262177L79.5151971 12C80.6232942 15.8862239 83.6780521 22.6130154 88.6794709 32.1803744 93.6808896 41.7477334 102.454399 54.050471 115 69.0885874z" id="Path-12" fill="#fff" fill-rule="nonzero"/><path d="M42.0339693 34.0452876 42.7051972 35.5277052C43.1205214 36.4449555 44.1529847 36.9104281 45.1153489 36.6142907L75.0544286 27.4014773C76.1101451 27.0766136 76.7026184 25.9574322 76.3777547 24.9017157 76.3508789 24.8143769 76.318049 24.7289828 76.2794956 24.6461334L75.5891237 23.1625581C74.9604086 21.8114803 73.4352638 21.1267037 72.0078134 21.5545812L43.8822569 29.9852025C42.3148688 30.4550263 41.4251171 32.1065129 41.8949409 33.673901 41.9329376 33.8006625 41.9793844 33.9247359 42.0339693 34.0452876z" id="Path-13-Copy" fill="#cadfff" fill-rule="nonzero"/><path d="M47.0014514 43.4533623 47.3245187 44.2749054C47.7072245 45.2481059 48.775052 45.762185 49.7744693 45.4543736L78.9158619 36.4790889C79.9714976 36.1539627 80.5636925 35.034634 80.2385663 33.9789983 80.2216067 33.9239332 80.2022756 33.8696267 80.1806269 33.8162307L80.0194113 33.4185966C79.4635837 32.0476623 77.9559605 31.3246973 76.5389652 31.7495848L48.6211704 40.1207641C47.289434 40.5200866 46.5335632 41.9233871 46.9328857 43.2551236 46.9529768 43.3221271 46.9758518 43.3882641 47.0014514 43.4533623z" id="Path-13-Copy-2" fill="#cadfff" fill-rule="nonzero"/><path d="M49.7109166 52.6756351 50.0446003 53.4755244C50.4391581 54.4213379 51.4847972 54.9158765 52.4662202 54.6208378L74.0685056 48.1266856C75.1263096 47.808685 75.7260388 46.693375 75.4080381 45.6355709 75.3861232 45.5626725 75.3600643 45.4910847 75.3299886 45.421157L75.2093088 45.1405693C74.6343344 43.8037193 73.1534149 43.1047365 71.7558994 43.5105862L51.2471848 49.4664813C49.9820323 49.8338917 49.2542686 51.1573453 49.621679 52.4224977 49.6466504 52.5084848 49.6764434 52.5929977 49.7109166 52.6756351z" id="Path-13-Copy-2" fill="#cadfff" fill-rule="nonzero"/><path id="Path-16" fill="#ffc206" fill-rule="nonzero" opacity=".200000003" d="M14 37.5919435 40.0276087 31 47 46.7229767 21.1839978 54z"/><path id="Path-16-Copy-4" fill="#55a7fe" fill-rule="nonzero" opacity=".200000003" d="M93 50.4150943 112.518245 44 117 54.2641509 97.2109755 61z"/><path id="Path-16-Copy-2" fill="#ff5151" fill-rule="nonzero" opacity=".200000003" d="M0 38.2298109 8.81433225 36 11 41.538452 2.25732899 44z"/><path id="Path-17" fill="#55a7fe" fill-rule="nonzero" opacity=".200000003" d="M19 93.5150462 38.7812905 88 40 92.2440783 20.2082762 98z"/><path id="Path-17" fill="#55a7fe" fill-rule="nonzero" opacity=".200000003" d="M41 87.045456 48.8083396 85 50 88.7421555 42.1814586 91z"/><path id="Path-16-Copy" fill="#ffc206" fill-rule="nonzero" opacity=".200000003" d="M122 68.2298109 130.013029 66 132 71.538452 124.052117 74z"/><g id="Group-26" transform="translate(56.667437, 15.160918) rotate(3.000000) translate(-56.667437, -15.160918) translate(38.667437, 1.660918)"><path d="M10.6477103 5.69074046C9.63567504 5.91605075 9.02384158 6.36998448 8.81220994 7.05254167 8.60057829 7.73509885 8.65839672 8.25234031 8.98566523 8.60426604 8.13535743 9.4913677 7.99748136 10.4340368 8.57203701 11.4322734 9.32199867 12.7352615 10.3280732 14.4534867 11.5902606 16.5869491L13.5169679 15.6870643 10.6477103 5.69074046z" id="Path-38" fill="#0069ff" fill-rule="nonzero"/><path d="M10.4412347 6.1789773C9.85956896 6.42122834 9.49538434 6.76449803 9.34868084 7.20878636 9.20197735 7.65307469 9.25961564 8.13525793 9.52159573 8.65533609 9.00334882 9.3516442 8.73538152 9.91299819 8.71769385 10.3393981 8.70000618 10.7657979 9.07345389 11.5451062 9.83803701 12.677323" id="Path-39" stroke="#438cff" stroke-linecap="round" stroke-linejoin="round" fill-rule="nonzero"/><mask id="mask-7" fill="#fff"><use xlink:href="#path-6"/></mask><use id="Combined-Shape" fill="url(#linearGradient-5)" fill-rule="nonzero" xlink:href="#path-6"/><path d="M17.1279337.810188474C15.5867076.58373789 14.3255791.756131986 13.3445483 1.32737076 12.3635174 1.89860954 11.7964017 2.54776899 11.6432011 3.27484912" id="Path-35" stroke="#fff" opacity=".5" stroke-linecap="round" stroke-linejoin="round" fill-rule="nonzero" mask="url(#mask-7)"/><path d="M11.696656 4.0471632 11.8505106 4.78927938C11.2255229 5.4760933 10.8485321 6.11665744 10.7195382 6.71097179 10.5905442 7.30528615 10.6658422 8.17559 10.9454319 9.32188336" id="Path-36" stroke="#fff" opacity=".5" stroke-linecap="round" stroke-linejoin="round" fill-rule="nonzero" mask="url(#mask-7)"/><path id="Path-37" fill="#fff" fill-rule="nonzero" opacity=".5" mask="url(#mask-7)" d="M35.4211252 13.5151041.257090161 25.5812387-.0694408233 24.585313 35.4211252 12.5057883z"/><path id="Path-37" fill="#0069ff" fill-rule="nonzero" mask="url(#mask-7)" d="M35.7646059 14.120598.6005708 26.1867326.274039816 25.1908069 35.7646059 13.1112823z"/></g><path d="M52 72C53.1547575 73.4310748 54.6645814 74.1466122 56.5294718 74.1466122 57.9008491 74.1466122 59.3602888 73.7267818 60.9077911 72.887121 61.4799 73.7267818 63.1465745 74.3850602 65.9078146 74.8619564 68.1192983 75.2439036 72.4833601 75.6133815 79 75.9703901 68.5618595 77.0433448 61.6030179 77.2777063 58.1234752 76.6734747 55.2712587 76.1781798 53.2301003 74.620355 52 72z" id="Path-33" fill="#9fc4ff" fill-rule="nonzero"/></g></g></g></svg>