<svg width="127" height="119" viewBox="0 0 127 119" xmlns="http://www.w3.org/2000/svg" xmlns:xlink="http://www.w3.org/1999/xlink"><title>Group 2</title><defs><linearGradient x1="48.9649018%" y1="26.3273503%" x2="50%" y2="69.9824298%" id="linearGradient-1"><stop stop-color="#95beff" offset="0"/><stop stop-color="#438cff" offset="100%"/></linearGradient><linearGradient x1="50%" y1="0" x2="50%" y2="100%" id="linearGradient-2"><stop stop-color="#f8edba" offset="0"/><stop stop-color="#fcd73f" offset="100%"/></linearGradient></defs><g id="新页面" stroke="none" stroke-width="1" fill="none" fill-rule="evenodd"><g id="放款处理中" transform="translate(-109.000000, -130.000000)"><g id="Group-2" transform="translate(109.000000, 130.000000)"><g id="Group"><g id="Group-15" transform="translate(6.000000, 0.000000)"><path d="M11.16.0C13.3470476-401754128e-24 15.12 1.77295239 15.12 3.96V31.68v0H4.32C5.58906354 30.9513778 6.40913575 30.3135527 6.78021661 29.7665248 7.15129747 29.2194968 7.29122527 28.4421403 7.2 27.4344553V3.96C7.2 1.77295239 8.97295239 401754128e-24 11.16.0z" id="Rectangle" fill="#d5e6ff"/><path d="M0 16.56H7.2V28.08C7.2 30.0682251 5.5882251 31.68 3.6 31.68 1.6117749 31.68-15433277e-22 30.0682251.0 28.08V16.56v0z" id="Rectangle" fill="#edf6ff"/><path d="M12.24.0H48C51.3137085-266370433e-23 54 2.6862915 54 6V48.28v0H15.12V3.6947744C15.12 2.74191454 14.8262896 1.9895327 14.2388688 1.43762888 13.6514481.885725058 12.9851584.406515431 12.24.0z" id="Rectangle" fill="#edf6ff"/><rect id="Rectangle" fill="#d5e6ff" x="19.44" y="7.2" width="30.24" height="2.88" rx="1"/><rect id="Rectangle" fill="#d5e6ff" x="19.44" y="13.68" width="30.24" height="2.88" rx="1"/><rect id="Rectangle" fill="#d5e6ff" x="19.44" y="20.16" width="21.6" height="2.88" rx="1"/></g><g id="Group-16" transform="translate(16.000000, 8.501043)"><g id="Group-8"><path d="M2.5638852 95.252792H107.436115C108.327634 95.252792 108.65092 95.3456176 108.976846 95.5199247 109.302772 95.6942318 109.55856 95.9500204 109.732867 96.2759463 109.907174 96.6018722 110 96.9251584 110 97.8166772v8.8722298C110 107.580426 109.907174 107.903712 109.732867 108.229638 109.55856 108.555564 109.302772 108.811352 108.976846 108.985659 108.65092 109.159966 108.327634 109.252792 107.436115 109.252792H2.5638852C1.67236646 109.252792 1.34908022 109.159966 1.0231543 108.985659.697228371 108.811352.441439796 108.555564.267132704 108.229638.0928256111 107.903712 401235366e-25 107.580426-690560205e-25 106.688907l138112041e-24-8.8722298C-401235366e-25 96.9251584.0928256111 96.6018722.267132704 96.2759463.441439796 95.9500204.697228371 95.6942318 1.0231543 95.5199247 1.34908022 95.3456176 1.67236646 95.252792 2.5638852 95.252792z" id="Rectangle" fill="#438cff"/><path d="M2.50920383 95.252792H107.490796C108.316697 95.252792 108.65092 95.3456176 108.976846 95.5199247 109.302772 95.6942318 109.55856 95.9500204 109.732867 96.2759463 109.907174 96.6018722 110 96.9360947 110 97.7619958V98.252792v0H0L623594842e-25 97.7619958C-387842293e-25 96.9360947.0928256111 96.6018722.267132704 96.2759463.441439796 95.9500204.697228371 95.6942318 1.0231543 95.5199247 1.34908022 95.3456176 1.68330273 95.252792 2.50920383 95.252792z" id="Rectangle" fill="#0069ff"/><path id="Path-13" fill="#d1e3ff" fill-rule="nonzero" d="M55.5770358.0.797101449 35.4701833H110z"/><path id="Rectangle" fill="#a7c9ff" fill-rule="nonzero" d="M.797101449 35.4701833h109.202899v6.37681159H.797101449z"/><path d="M11.9561159 49.8179949 9.76811594 49.8180094c-.5522847500000001.0-1-.4477152999999987-1-1V41.8469949H29.4927536V48.8180094c0 .5522847000000013-.4477152000000011 1-1 1L26.3041159 49.8179949 26.3043478 87.2817775H28.4927536c.5522847999999989.0 1 .44771519999999043 1 1V95.252792H8.76811594V88.2817775c0-.5522848000000096.4477152499999999-1 1-1H11.9565217L11.9561159 49.8179949z" id="Combined-Shape" fill="url(#linearGradient-1)" fill-rule="nonzero"/><path d="M47.8256812 49.8179949 45.6376812 49.8180094c-.5522848000000025.0-1-.4477152999999987-1-1V41.8469949H65.3623188V48.8180094c0 .5522847000000013-.44771519999999043 1-1 1L62.1736812 49.8179949 62.173913 87.2817775H64.3623188c.5522848000000096.0 1 .44771519999999043 1 1V95.252792H44.6376812V88.2817775c0-.5522848000000096.44771519999999754-1 1-1H47.826087L47.8256812 49.8179949z" id="Combined-Shape" fill="url(#linearGradient-1)" fill-rule="nonzero"/><path d="M85.2894493 49.8179949 83.1014493 49.8180094c-.5522847999999954.0-1-.4477152999999987-1-1V41.8469949H102.826087V48.8180094c0 .5522847000000013-.4477150000000023 1-1 1L99.6374493 49.8179949 99.6376812 87.2817775H101.826087c.5522849999999977.0 1 .44771519999999043 1 1V95.252792H82.1014493V88.2817775c0-.5522848000000096.44771520000000464-1 1-1H85.2898551L85.2894493 49.8179949z" id="Combined-Shape" fill="url(#linearGradient-1)" fill-rule="nonzero"/></g><g id="Group-13" transform="translate(45.231884, 13.948444)"><path d="M9.76796668.0C4.79750332.0.768115942 4.02905545.768115942 9.00007463.768115942 13.9704968 4.79750332 18 9.76796668 18 14.7387286 18 18.7681159 13.9704968 18.7681159 9.00007463 18.7681159 4.02905545 14.7387286.0 9.76796668.0z" id="Path" fill="#ffbe1b" fill-rule="nonzero"/><path d="M9.76819879 1.55051306c-4.14207916.0-7.50008285 3.3576178699999994-7.50008285 7.4996686.0 4.14221644 3.35800369 7.50033144 7.50008285 7.50033144C13.9101123 16.5505131 17.2681159 13.1923981 17.2681159 9.05018166 17.2681159 4.90796523 13.9101123 1.55051306 9.76819879 1.55051306z" id="Path" fill="#ffe37b" fill-rule="nonzero"/><path d="M10.4461981 15.7287571V14.3583867C10.8617232 14.3174802 11.2395771 14.2254404 11.5797598 14.0822673 11.9199424 13.9390943 12.2110383 13.7504695 12.4530474 13.516393 12.6950566 13.2823165 12.8822712 13.0050608 13.0146913 12.6846259 13.1471114 12.3641911 13.2133214 12.0017133 13.2133214 11.5971927 13.2133214 11.13813 13.1356959 10.7449723 12.9804447 10.4177197 12.8251936 10.0904671 12.6105817 9.80412103 12.3366091 9.55868156 12.0626365 9.31324209 11.737294 9.09393738 11.3605817 8.90076743 10.9838694 8.70759748 10.574052 8.51783641 10.1311296 8.33148422 9.90281914 8.23149036 9.71217987 8.13263279 9.55921183 8.03491152 9.4062438 7.93719025 9.28409768 7.8360601 9.19277348 7.73152107 9.10144928 7.62698204 9.03752233 7.51335265 9.00099265 7.39063292 8.96446297 7.26791318 8.94619813 7.12928533 8.94619813 6.97474937 8.94619813 6.82930376 8.96446297 6.69181221 9.00099265 6.56227471 9.03752233 6.43273721 9.09345841 6.32024412 9.16880087 6.22479544 9.24414334 6.12934675 9.34231686 6.05321507 9.46332142 5.99640038 9.58432599 5.93958568 9.72930316 5.91117834 9.89825293 5.91117834 10.0489379 5.91117834 10.1882073 5.93844939 10.3160611 5.99299149 10.443915 6.0475336 10.5557872 6.13502822 10.6516776 6.25547537 10.747568 6.37592252 10.8217689 6.52932219 10.8742803 6.71567438 10.9267917 6.90202657 10.9530474 7.12474016 10.9530474 7.38381515v0H13.2681159C13.2681159 6.93838797 13.204189 6.53386736 13.0763351 6.17025333 12.9484812 5.8066393 12.7669744 5.48961332 12.5318146 5.21917539 12.2966548 4.94873746 12.0135497 4.72943274 11.6824995 4.56126126 11.3514493 4.39308977 10.9850109 4.27946038 10.5831844 4.2203731v0V2.75455405H9.49414334V4.19310205C9.06491959 4.23400863 8.67450864 4.32832102 8.32291046 4.47603922 7.97131229 4.62375742 7.66994243 4.81692737 7.41880087 5.05554908 7.16765932 5.29417078 6.97359539 5.57483536 6.83660909 5.89754281 6.69962279 6.22025026 6.63112964 6.57477394 6.63112964 6.96111385 6.63112964 7.42472173 6.70647211 7.82015199 6.85715704 8.14740461 7.00784197 8.47465724 7.22017074 8.7587307 7.49414334 8.99962499 7.76811594 9.24051929 8.09459996 9.45414253 8.47359539 9.64049472 8.85259083 9.82684691 9.26811594 10.0109265 9.72017074 10.1927335 9.93478261 10.283637 10.117431 10.3745405 10.2681159 10.465444 10.4188009 10.5563476 10.540947 10.6552051 10.6345543 10.7620167 10.7281616 10.8688284 10.7966548 10.9904118 10.8400338 11.1267671 10.8834127 11.2631223 10.9051022 11.424476 10.9051022 11.6108282 10.9051022 11.7562738 10.8856959 11.8914928 10.8468831 12.0164851 10.8080703 12.1414775 10.747568 12.2505617 10.6653762 12.3437378 10.5831844 12.4369139 10.4793032 12.510773 10.3537324 12.5653151 10.2281616 12.6198572 10.0786182 12.6471282 9.90510224 12.6471282 9.73158626 12.6471282 9.56491959 12.6209935 9.40510224 12.5687239 9.24528489 12.5164544 9.10373238 12.4289598 8.98044471 12.3062401 8.85715704 12.1835203 8.75898352 12.0210303 8.68592416 11.81877 8.6128648 11.6165097 8.57633512 11.3631162 8.57633512 11.0585894v0H6.26811594C6.26811594 11.617646 6.35487393 12.0960257 6.52838991 12.4937285 6.7019059 12.8914314 6.9324995 13.2220929 7.22017074 13.4857131 7.50784197 13.7493332 7.83775065 13.949321 8.20989676 14.0856762 8.58204288 14.2220315 8.96446297 14.3106624 9.35715704 14.351569v0V15.7287571H10.4461981z" id="$" fill="#fff" fill-rule="nonzero"/><path id="Rectangle" fill="#fff" d="M9.5 3.75455405 10.5431645 3.78664748V14.7703626H9.36123314z"/></g></g><g id="Group-40" transform="translate(0.000000, 53.000000)"><g id="cash" transform="translate(0.000000, 0.546106)"><path id="Rectangle" fill="#000" fill-rule="nonzero" opacity="0" d="M0 0h59.5200883v59.5200883H0z"/><g id="Group-5" transform="translate(0.717109, 2.151328)"><path d="M18.3371205 3.53938401C16.7088041 3.13683193 15.4373818 1.88167031 15.0295583.274123599L14.9596094.0 14.8899653.274123599C14.4819207 1.88181658 13.2101997 3.1369839 11.5816412 3.53938401L11.3044362 3.6084415 11.5816412 3.67719807C13.2102968 4.07961942 14.4820492 5.33493336 14.8899653 6.94275939L14.9596094 7.21688299 15.0295583 6.94275939C15.4372532 5.33507963 16.7087069 4.0797714 18.3371205 3.67719807L18.6152398 3.6084415 18.3371205 3.53938401v0z" id="Path" fill="#ffc600" fill-rule="nonzero"/><path d="M49.8125751 47.7237566C47.5394901 47.1614014 45.7646473 45.409177 45.195033 43.16506L45.0971959 42.7824605 44.9998161 43.16506C44.4299895 45.4094362 42.6546863 47.1617102 40.3812072 47.7237566L39.9942785 47.8195945 40.3812072 47.9157334C42.6549896 48.4777277 44.4304172 50.2304138 44.9998161 52.4751821L45.0971959 52.8579321 45.195033 52.4751821C45.7641282 50.230622 47.5391351 48.4779465 49.8125751 47.9157334L50.2008754 47.8195945 49.8125751 47.7237566v0z" id="Path" fill="#f9e65d" fill-rule="nonzero"/><path d="M29.7960633 47.1509857C28.2016512 46.7565856 26.956722 45.5275217 26.5572309 43.9534287L26.4886535 43.6851727 26.420381 43.9534287C26.0207599 45.527719 24.7754924 46.7568277 23.1807865 47.1509857L22.9093726 47.2183882 23.1807865 47.2856403C24.7755779 47.6799353 26.0208461 48.9092183 26.420381 50.4836486L26.4886535 50.7523559 26.5572309 50.4836486C26.9566054 48.9093986 28.2015486 47.6801473 29.7960633 47.2856403L30.0683916 47.2183882 29.7960633 47.1509857v0z" id="Path" fill="#5d8ef9" fill-rule="nonzero"/><path d="M11.1418317 6.48989878C10.1884974 6.25411973 9.4441047 5.51927137 9.20520709 4.57810483L9.16421307 4.41772297 9.12337145 4.57810483C8.88436103 5.51931625 8.13985943 6.25415649 7.18644205 6.48989878L7.02414231 6.53021992 7.18644205 6.57054107C8.14010551 6.80623572 8.88470938 7.54140825 9.12337145 8.48293683L9.16421307 8.64301779 9.20520709 8.48293683C9.44375632 7.54145314 10.1882513 6.80627246 11.1418317 6.57054107L11.3045886 6.53021992 11.1418317 6.48989878v0z" id="Path" fill="#ffc600" fill-rule="nonzero"/><path d="M6.03120662 11.4695251 51.1600827 11.6134277C52.4924486 11.6176763 52.9752556 11.7571555 53.4621375 12.0181578 53.9490193 12.2791601 54.3312115 12.6613386 54.5922311 13.1482111 54.8532507 13.6350837 54.9927471 14.1178857 54.9970431 15.4502515L55.0642131 36.2825607C55.0695553 37.9394063 53.7307473 39.2868758 52.0739016 39.292218 52.0674886 39.2922387 52.0610756 39.2922388 52.0546626 39.2922184L6.92578656 39.1483157C5.59342066 39.1440672 5.11061364 39.004588 4.62373179 38.7435857 4.13684994 38.4825834 3.75465781 38.1004049 3.49363819 37.6135324 3.23261857 37.1266598 3.09312215 36.6438578 3.08882618 35.311492L3.02165615 14.4791828C3.01631395 12.8223371 4.35512201 11.4748677 6.01196765 11.4695255 6.01838062 11.4695048 6.02479365 11.4695047 6.03120662 11.4695251z" id="Rectangle" fill="#029a4a" transform="translate(29.042935, 25.380872) rotate(-15.000000) translate(-29.042935, -25.380872)"/><path d="M44.811486 14.7976593H13.0693127C12.5494963 17.9879946 9.99857093 20.5062607 6.76705341 21.0194526v8.9944737C9.99857093 30.5269677 12.5494963 33.0456851 13.0693127 36.2360204H44.811486C45.3313024 33.0456851 47.8822277 30.5269677 51.1137452 30.0139263V21.0194526C47.8822277 20.5064111 45.3313024 17.9879946 44.811486 14.7976593z" id="Path" fill="#f0f6cf" fill-rule="nonzero"/><path d="M49.7173578 12.3904268H8.16344082C6.04897227 12.3904268 4.32874733 14.0885789 4.32874733 16.1761008V34.857278C4.32874733 36.9448 6.04897227 38.6432529 8.16344082 38.6432529H49.7173578C51.8318264 38.6432529 53.5520513 36.9448 53.5520513 34.857278V16.1761008C53.5520513 14.0885789 51.8318264 12.3904268 49.7173578 12.3904268zM51.1137452 30.0140767C47.8822277 30.5271182 45.3313024 33.0458356 44.811486 36.2361709H13.0693127C12.5494963 33.0458356 9.99857093 30.5271182 6.76705341 30.0140767V21.019603C9.99857093 20.5064111 12.5494963 17.988145 13.0693127 14.7978097H44.811486C45.3313024 17.988145 47.8822277 20.5064111 51.1137452 21.019603v8.9944737z" id="Shape" fill="#a8d147" fill-rule="nonzero"/><path d="M29.0427837 16.6901452C24.0154309 16.6901452 19.9399253 20.7134149 19.9399253 25.6772956 19.9399253 30.6405801 24.0154309 34.6642968 29.0427837 34.6642968 34.0704383 34.6642968 38.145944 30.6405801 38.145944 25.6772956 38.145944 20.7134149 34.0704383 16.6901452 29.0427837 16.6901452z" id="Path" fill="#ffbe1b" fill-rule="nonzero"/><path d="M29.0430208 17.9740026C24.7338339 17.9740026 21.2403552 21.4224501 21.2403552 25.6765509 21.2403552 29.9308218 24.7338339 33.3797799 29.0430208 33.3797799 33.3520353 33.3797799 36.8455141 29.9308218 36.8455141 25.6765509 36.8455141 21.4222799 33.3520353 17.9740026 29.0430208 17.9740026z" id="Path" fill="#ffe37b" fill-rule="nonzero"/><path d="M29.6257204 30.5697817V29.4037784C29.9792771 29.3689724 30.3007806 29.2906587 30.5902309 29.1688375 30.8796811 29.0470162 31.1273651 28.8865216 31.3332827 28.6873536 31.5392004 28.4881855 31.6984951 28.2522777 31.811167 27.9796302 31.923839 27.7069827 31.9801749 27.3985623 31.9801749 27.0543689 31.9801749 26.6637675 31.9141259 26.3292425 31.7820278 26.050794 31.6499296 25.7723455 31.4673234 25.528703 31.2342091 25.3198666 31.0010948 25.1110302 30.7242716 24.924431 30.4037394 24.760069 30.0832072 24.595707 29.7345071 24.4342456 29.3576389 24.2756846 29.163377 24.1906031 29.0011683 24.1064884 28.8710128 24.0233406 28.7408573 23.9401928 28.6369272 23.8541445 28.5592224 23.7651956 28.4815177 23.6762468 28.4271243 23.5795633 28.3960424 23.4751451 28.3649605 23.3707269 28.3494196 23.252773 28.3494196 23.1212834 28.3494196 22.9975285 28.3649605 22.8805414 28.3960424 22.7703222 28.4271243 22.660103 28.4747185 22.5643863 28.5388249 22.4831722 28.6029314 22.401958 28.686464 22.3371801 28.7894228 22.2888383 28.8923816 22.2404965 29.015738 22.2163257 29.1594918 22.2163257 29.2877047 22.2163257 29.4062044 22.2395297 29.5149911 22.2859378 29.6237778 22.3323459 29.7189661 22.4067922 29.8005561 22.5092767 29.8821461 22.6117612 29.9452813 22.742284 29.9899615 22.900845 30.0346418 23.0594059 30.0569819 23.2489056 30.0569819 23.4693441v0H32.0267978C32.0267978 23.0903447 31.9724044 22.7461513 31.8636178 22.4367641 31.7548311 22.1273768 31.6003929 21.8576298 31.4003031 21.627523 31.2002133 21.3974162 30.9593285 21.2108171 30.6776487 21.0677255 30.3959689 20.9246338 30.0841785 20.8279503 29.7422776 20.7776749v0V19.5304575H28.8156482V20.7544708C28.4504358 20.7892769 28.1182479 20.8695242 27.8190845 20.9952128 27.5199212 21.1209014 27.2634954 21.2852634 27.0498073 21.4882988 26.8361192 21.6913341 26.6709965 21.9301424 26.5544394 22.2047236 26.4378822 22.4793048 26.3796037 22.7809574 26.3796037 23.1096814 26.3796037 23.5041501 26.4437101 23.8406088 26.571923 24.1190573 26.7001358 24.3975058 26.8807994 24.6392146 27.1139137 24.8441837 27.347028 25.0491527 27.6248226 25.2309178 27.9472974 25.3894787 28.2697722 25.5480397 28.6233289 25.704667 29.0079675 25.8593606 29.1905737 25.9367074 29.3459832 26.0140543 29.4741961 26.0914011 29.602409 26.1687479 29.7063391 26.2528626 29.7859865 26.3437451 29.8656339 26.4346276 29.9239125 26.5380789 29.9608222 26.6540992 29.997732 26.7701194 30.0161869 26.90741 30.0161869 27.0659709 30.0161869 27.1897259 29.9996746 27.3047792 29.9666501 27.4111311 29.9336256 27.517483 29.8821461 27.6102992 29.8122119 27.6895796 29.7422776 27.7688601 29.6538884 27.8317044 29.5470443 27.8781125 29.4402003 27.9245206 29.3129587 27.9477246 29.1653196 27.9477246 29.0176806 27.9477246 28.8758694 27.9254874 28.739886 27.881013 28.6039027 27.8365386 28.4834603 27.7620923 28.3785589 27.6576741 28.2736574 27.5532559 28.1901248 27.4149985 28.127961 27.2429018 28.0657972 27.0708051 28.0347152 26.8552009 28.0347152 26.596089v0H26.0707272C26.0707272 27.071772 26.1445467 27.4788096 26.2921858 27.8172019 26.4398249 28.1555942 26.6360294 28.4369432 26.8807994 28.661249 27.1255694 28.8855548 27.4062779 29.0557178 27.7229249 29.171738 28.0395718 29.2877582 28.3649605 29.3631714 28.699091 29.3979774v0V30.5697817H29.6257204z" id="$" fill="#fff" fill-rule="nonzero"/><path id="Rectangle" fill="#fff" d="M28.6450862 19.5304575H29.630379V30.889224H28.6450862z"/></g></g></g></g><g id="Group-14" transform="translate(93.223256, 57.843529)"><path d="M28.5122637 3.15647065 31.5762943 5.18532464C32.3023965 5.66610848 32.6339327 6.56146995 32.3960571 7.39920061 30.7686583 13.1304404 28.1313566 18.5508389 24.4841521 23.6603961 20.7987141 28.8235166 16.0820888 33.6692446 10.334276 38.19758 9.61280226 38.7659654 8.59693652 38.7699013 7.87108873 38.2071125L4.77674357 35.8079003v0L28.5122637 3.15647065z" id="Path-16" fill="#fac42b"/><ellipse id="Oval" fill="url(#linearGradient-2)" transform="translate(16.139457, 19.574468) rotate(37.000000) translate(-16.139457, -19.574468)" cx="16.1394574" cy="19.5744681" rx="4.66397795" ry="20.3828568"/></g></g></g></g></svg>