<?xml version="1.0" encoding="UTF-8"?>
<svg width="200px" height="204px" viewBox="0 0 200 204" version="1.1" xmlns="http://www.w3.org/2000/svg" xmlns:xlink="http://www.w3.org/1999/xlink">
    <title>6</title>
    <defs>
        <linearGradient x1="49.9597387%" y1="1.17602873%" x2="49.9597387%" y2="75.8127743%" id="linearGradient-1">
            <stop stop-color="#B0BACC" offset="0%"></stop>
            <stop stop-color="#969EAE" offset="100%"></stop>
        </linearGradient>
        <path d="M14.6845638,6.06329801e-13 L107.162226,6.06329801e-13 C115.446497,5.99226451e-13 122.162226,6.71572875 122.162226,15 C122.162226,15.0684775 122.161757,15.1369542 122.160819,15.2054252 L120.469857,138.666667 L120.469857,138.666667 L47.1437583,138.666667 C37.2026328,138.666667 29.1437583,130.607792 29.1437583,120.666667 L29.1437583,25.7881656 L29.1437583,25.7881656 C29.1437583,19.5853032 27.477236,13.9390931 24.1441915,8.8495351 C19.9453079,3.52212958 16.7920986,0.572284543 14.6845638,6.06329801e-13 Z" id="path-2"></path>
        <filter x="-35.8%" y="-19.8%" width="171.3%" height="155.5%" filterUnits="objectBoundingBox" id="filter-3">
            <feOffset dx="0" dy="11" in="SourceAlpha" result="shadowOffsetOuter1"></feOffset>
            <feGaussianBlur stdDeviation="11" in="shadowOffsetOuter1" result="shadowBlurOuter1"></feGaussianBlur>
            <feColorMatrix values="0 0 0 0 0.396078431   0 0 0 0 0.478431373   0 0 0 0 0.576470588  0 0 0 0.27 0" type="matrix" in="shadowBlurOuter1"></feColorMatrix>
        </filter>
    </defs>
    <g id="UI页面" stroke="none" stroke-width="1" fill="none" fill-rule="evenodd">
        <g id="全流程-缺省页图" transform="translate(-455.000000, -327.000000)">
            <g id="6" transform="translate(455.000000, 327.000000)">
                <rect id="Rectangle" x="0" y="0" width="200" height="204"></rect>
                <g id="26" transform="translate(6.666667, 21.333333)">
                    <path d="M86.3523035,154.189702 C128.845528,154.189702 163.295393,119.739837 163.295393,77.0948509 C163.295393,34.4498645 128.845528,0 86.3523035,0 C43.8590786,0 9.40921409,34.4498645 9.40921409,77.0948509 C9.40921409,119.739837 43.8590786,154.189702 86.3523035,154.189702 Z" id="Path" fill="#EAEEF9" fill-rule="nonzero"></path>
                    <g id="Group-40" transform="translate(25.315436, 10.666667)">
                        <g id="Group-39">
                            <g id="Group-38">
                                <path d="M15.3333333,27.9194631 C23.8016995,27.9194631 30.6666667,21.6694784 30.6666667,13.9597315 C30.6666667,6.2499847 23.8016995,0 15.3333333,0 C6.86496717,0 0,6.2499847 0,13.9597315 C0,16.4196184 0.754474719,20.9531667 3.76005662,24.4295302 C6.79270857,27.9372039 9.82616016,27.7078987 10.7022808,27.8336461 C12.3084941,28.0641818 13.9617667,27.9195097 15.3333333,27.9194631 Z" id="Oval" fill="#CED7E2" fill-rule="nonzero"></path>
                                <path d="M16.4410682,17.8953766 L35.6975077,17.8953766 L35.6975077,27.9194631 L10.5457831,27.9194631 C11.9024467,27.5656509 13.3997431,26.1282812 15.0376721,23.607354 C16.6756012,21.0864268 17.1433999,19.1824344 16.4410682,17.8953766 Z" id="Path-12" fill="#B7C1CE" fill-rule="nonzero"></path>
                                <g id="Path-10" fill-rule="nonzero">
                                    <use fill="black" fill-opacity="1" filter="url(#filter-3)" xlink:href="#path-2"></use>
                                    <use fill="url(#linearGradient-1)" xlink:href="#path-2"></use>
                                </g>
                                <path d="M35.6711108,8.14317673 L35.6711108,117.959569 C35.6711108,123.482417 40.1482633,127.959569 45.6711108,127.959569 C45.7317553,127.959569 45.7923985,127.959018 45.8530329,127.957914 L113.35123,126.72977 L113.35123,126.72977 L113.35123,18.1431767 C113.35123,12.6203292 108.874078,8.14317673 103.35123,8.14317673 L35.6711108,8.14317673 L35.6711108,8.14317673 Z" id="Path-2" fill="#FFFFFF"></path>
                                <path d="M67.886555,120 C67.6320431,125.333701 65.82645,129.556107 62.4697756,132.667219 C59.1131012,135.77833 54.2053455,137.778146 47.7465085,138.666667 L121.223287,138.666667 C126.166182,137.778146 129.945765,135.77833 132.562038,132.667219 C135.178311,129.556107 136.631273,125.333701 136.920924,120 L67.886555,120 Z" id="Path-14" fill="#C4CFDB" fill-rule="nonzero"></path>
                            </g>
                            <g id="Group-37" transform="translate(43.463087, 23.266219)" fill="#CED7E2" fill-rule="nonzero">
                                <path d="M1.62602237,25.3333333 L1.62602237,22.432 L2.33002237,22.432 L3.97268904,25.3333333 L5.70068904,25.3333333 L3.9193557,22.3146667 C4.48113348,22.1653333 4.90424459,21.8933333 5.18868904,21.4986667 C5.47313348,21.104 5.6153557,20.6613333 5.6153557,20.1706667 C5.6153557,19.744 5.51402237,19.3582222 5.3113557,19.0133333 C5.10868904,18.6684444 4.80468904,18.3946667 4.3993557,18.192 C3.99402237,17.9893333 3.5033557,17.888 2.9273557,17.888 L2.9273557,17.888 L0.132689038,17.888 L0.132689038,25.3333333 L1.62602237,25.3333333 Z M2.87402237,21.312 L1.62602237,21.312 L1.62602237,19.1253333 L2.87402237,19.1253333 C3.2793557,19.1253333 3.58157793,19.2195556 3.78068904,19.408 C3.97980015,19.5964444 4.0793557,19.8613333 4.0793557,20.2026667 C4.0793557,20.5511111 3.97980015,20.8231111 3.78068904,21.0186667 C3.58157793,21.2142222 3.2793557,21.312 2.87402237,21.312 L2.87402237,21.312 Z M9.5513557,25.4293333 C10.2553557,25.4293333 10.8491335,25.2462222 11.332689,24.88 C11.8162446,24.5137778 12.1433557,24.0462222 12.3140224,23.4773333 L12.3140224,23.4773333 L10.7033557,23.4773333 C10.468689,23.9537778 10.0740224,24.192 9.5193557,24.192 C9.1353557,24.192 8.81180015,24.0711111 8.54868904,23.8293333 C8.28557793,23.5875556 8.13624459,23.2533333 8.10068904,22.8266667 L8.10068904,22.8266667 L12.420689,22.8266667 C12.4491335,22.656 12.4633557,22.464 12.4633557,22.2506667 C12.4633557,21.6746667 12.340689,21.1644444 12.0953557,20.72 C11.8500224,20.2755556 11.5051335,19.9324444 11.060689,19.6906667 C10.6162446,19.4488889 10.1131335,19.328 9.5513557,19.328 C8.96824459,19.328 8.45268904,19.4524444 8.00468904,19.7013333 C7.55668904,19.9502222 7.20824459,20.3057778 6.9593557,20.768 C6.71046682,21.2302222 6.58602237,21.7671111 6.58602237,22.3786667 C6.58602237,22.9831111 6.71224459,23.5164444 6.96468904,23.9786667 C7.21713348,24.4408889 7.56913348,24.7982222 8.02068904,25.0506667 C8.47224459,25.3031111 8.98246682,25.4293333 9.5513557,25.4293333 Z M10.916689,21.824 L8.1113557,21.824 C8.16824459,21.4257778 8.32291126,21.1146667 8.5753557,20.8906667 C8.82780015,20.6666667 9.13891126,20.5546667 9.50868904,20.5546667 C9.89980015,20.5546667 10.2304668,20.6702222 10.500689,20.9013333 C10.7709113,21.1324444 10.9095779,21.44 10.916689,21.824 L10.916689,21.824 Z M16.132689,25.4293333 C16.836689,25.4293333 17.4304668,25.2462222 17.9140224,24.88 C18.3975779,24.5137778 18.724689,24.0462222 18.8953557,23.4773333 L18.8953557,23.4773333 L17.284689,23.4773333 C17.0500224,23.9537778 16.6553557,24.192 16.100689,24.192 C15.716689,24.192 15.3931335,24.0711111 15.1300224,23.8293333 C14.8669113,23.5875556 14.7175779,23.2533333 14.6820224,22.8266667 L14.6820224,22.8266667 L19.0020224,22.8266667 C19.0304668,22.656 19.044689,22.464 19.044689,22.2506667 C19.044689,21.6746667 18.9220224,21.1644444 18.676689,20.72 C18.4313557,20.2755556 18.0864668,19.9324444 17.6420224,19.6906667 C17.1975779,19.4488889 16.6944668,19.328 16.132689,19.328 C15.5495779,19.328 15.0340224,19.4524444 14.5860224,19.7013333 C14.1380224,19.9502222 13.7895779,20.3057778 13.540689,20.768 C13.2918001,21.2302222 13.1673557,21.7671111 13.1673557,22.3786667 C13.1673557,22.9831111 13.2935779,23.5164444 13.5460224,23.9786667 C13.7984668,24.4408889 14.1504668,24.7982222 14.6020224,25.0506667 C15.0535779,25.3031111 15.5638001,25.4293333 16.132689,25.4293333 Z M17.4980224,21.824 L14.692689,21.824 C14.7495779,21.4257778 14.9042446,21.1146667 15.156689,20.8906667 C15.4091335,20.6666667 15.7202446,20.5546667 16.0900224,20.5546667 C16.4811335,20.5546667 16.8118001,20.6702222 17.0820224,20.9013333 C17.3522446,21.1324444 17.4909113,21.44 17.4980224,21.824 L17.4980224,21.824 Z M21.6260224,25.3333333 L21.6260224,22.0693333 C21.6260224,21.6071111 21.7451335,21.2533333 21.9833557,21.008 C22.2215779,20.7626667 22.5469113,20.64 22.9593557,20.64 C23.364689,20.64 23.684689,20.7626667 23.9193557,21.008 C24.1540224,21.2533333 24.2713557,21.6071111 24.2713557,22.0693333 L24.2713557,22.0693333 L24.2713557,25.3333333 L25.764689,25.3333333 L25.764689,22.0693333 C25.764689,21.6071111 25.8838001,21.2533333 26.1220224,21.008 C26.3602446,20.7626667 26.6820224,20.64 27.0873557,20.64 C27.492689,20.64 27.812689,20.7626667 28.0473557,21.008 C28.2820224,21.2533333 28.3993557,21.6071111 28.3993557,22.0693333 L28.3993557,22.0693333 L28.3993557,25.3333333 L29.892689,25.3333333 L29.892689,21.8666667 C29.892689,21.0702222 29.6704668,20.4497778 29.2260224,20.0053333 C28.7815779,19.5608889 28.196689,19.3386667 27.4713557,19.3386667 C27.044689,19.3386667 26.6482446,19.4417778 26.2820224,19.648 C25.9158001,19.8542222 25.636689,20.128 25.444689,20.4693333 C25.2455779,20.1066667 24.964689,19.8275556 24.6020224,19.632 C24.2393557,19.4364444 23.8269113,19.3386667 23.364689,19.3386667 C23.0020224,19.3386667 22.6695779,19.4097778 22.3673557,19.552 C22.0651335,19.6942222 21.8180224,19.8897778 21.6260224,20.1386667 L21.6260224,20.1386667 L21.6260224,19.424 L20.132689,19.424 L20.132689,25.3333333 L21.6260224,25.3333333 Z M34.756689,25.4293333 C35.2615779,25.4293333 35.7184668,25.3013333 36.1273557,25.0453333 C36.5362446,24.7893333 36.8598001,24.4284444 37.0980224,23.9626667 C37.3362446,23.4968889 37.4553557,22.9617778 37.4553557,22.3573333 C37.4553557,21.7528889 37.3362446,21.2213333 37.0980224,20.7626667 C36.8598001,20.304 36.5362446,19.9502222 36.1273557,19.7013333 C35.7184668,19.4524444 35.2615779,19.328 34.756689,19.328 C34.3229113,19.328 33.9371335,19.4168889 33.5993557,19.5946667 C33.2615779,19.7724444 32.996689,20.0035556 32.804689,20.288 L32.804689,20.288 L32.804689,17.44 L31.3113557,17.44 L31.3113557,25.3333333 L32.804689,25.3333333 L32.804689,24.4906667 C33.0038001,24.768 33.268689,24.9937778 33.5993557,25.168 C33.9300224,25.3422222 34.3158001,25.4293333 34.756689,25.4293333 Z M34.3620224,24.1173333 C34.0918001,24.1173333 33.8375779,24.048 33.5993557,23.9093333 C33.3611335,23.7706667 33.1691335,23.5697778 33.0233557,23.3066667 C32.8775779,23.0435556 32.804689,22.7342222 32.804689,22.3786667 C32.804689,22.0231111 32.8775779,21.7137778 33.0233557,21.4506667 C33.1691335,21.1875556 33.3611335,20.9866667 33.5993557,20.848 C33.8375779,20.7093333 34.0918001,20.64 34.3620224,20.64 C34.6393557,20.64 34.8971335,20.7075556 35.1353557,20.8426667 C35.3735779,20.9777778 35.5655779,21.1751111 35.7113557,21.4346667 C35.8571335,21.6942222 35.9300224,22.0017778 35.9300224,22.3573333 C35.9300224,22.72 35.8571335,23.0328889 35.7113557,23.296 C35.5655779,23.5591111 35.3735779,23.7617778 35.1353557,23.904 C34.8971335,24.0462222 34.6393557,24.1173333 34.3620224,24.1173333 Z M41.1673557,25.4293333 C41.7433557,25.4293333 42.2642446,25.3031111 42.7300224,25.0506667 C43.1958001,24.7982222 43.5655779,24.4408889 43.8393557,23.9786667 C44.1131335,23.5164444 44.2500224,22.9831111 44.2500224,22.3786667 C44.2500224,21.7742222 44.116689,21.2408889 43.8500224,20.7786667 C43.5833557,20.3164444 43.2189113,19.9591111 42.756689,19.7066667 C42.2944668,19.4542222 41.7789113,19.328 41.2100224,19.328 C40.6411335,19.328 40.1255779,19.4542222 39.6633557,19.7066667 C39.2011335,19.9591111 38.836689,20.3164444 38.5700224,20.7786667 C38.3033557,21.2408889 38.1700224,21.7742222 38.1700224,22.3786667 C38.1700224,22.9831111 38.2998001,23.5164444 38.5593557,23.9786667 C38.8189113,24.4408889 39.1762446,24.7982222 39.6313557,25.0506667 C40.0864668,25.3031111 40.5984668,25.4293333 41.1673557,25.4293333 Z M41.1673557,24.128 C40.740689,24.128 40.3869113,23.9768889 40.1060224,23.6746667 C39.8251335,23.3724444 39.684689,22.9404444 39.684689,22.3786667 C39.684689,21.8168889 39.828689,21.3848889 40.116689,21.0826667 C40.404689,20.7804444 40.7620224,20.6293333 41.188689,20.6293333 C41.6153557,20.6293333 41.9762446,20.7804444 42.2713557,21.0826667 C42.5664668,21.3848889 42.7140224,21.8168889 42.7140224,22.3786667 C42.7140224,22.7555556 42.6429113,23.0755556 42.500689,23.3386667 C42.3584668,23.6017778 42.1682446,23.7991111 41.9300224,23.9306667 C41.6918001,24.0622222 41.4375779,24.128 41.1673557,24.128 Z M46.8420224,25.3333333 L46.8420224,17.44 L45.348689,17.44 L45.348689,25.3333333 L46.8420224,25.3333333 Z M50.5753557,25.4293333 C51.044689,25.4293333 51.4553557,25.3528889 51.8073557,25.2 C52.1593557,25.0471111 52.4295779,24.8355556 52.6180224,24.5653333 C52.8064668,24.2951111 52.900689,23.9893333 52.900689,23.648 C52.8935779,23.2568889 52.788689,22.9422222 52.5860224,22.704 C52.3833557,22.4657778 52.1433557,22.2897778 51.8660224,22.176 C51.588689,22.0622222 51.236689,21.952 50.8100224,21.8453333 C50.3904668,21.7386667 50.0811335,21.6337778 49.8820224,21.5306667 C49.6829113,21.4275556 49.5833557,21.2764444 49.5833557,21.0773333 C49.5833557,20.8995556 49.6562446,20.7608889 49.8020224,20.6613333 C49.9478001,20.5617778 50.1558001,20.512 50.4260224,20.512 C50.7175779,20.512 50.9504668,20.5813333 51.124689,20.72 C51.2989113,20.8586667 51.396689,21.0453333 51.4180224,21.28 L51.4180224,21.28 L52.8473557,21.28 C52.804689,20.6826667 52.5735779,20.208 52.1540224,19.856 C51.7344668,19.504 51.172689,19.328 50.468689,19.328 C49.9922446,19.328 49.5780224,19.4062222 49.2260224,19.5626667 C48.8740224,19.7191111 48.6038001,19.9324444 48.4153557,20.2026667 C48.2269113,20.4728889 48.132689,20.7715556 48.132689,21.0986667 C48.132689,21.4968889 48.2340224,21.8133333 48.436689,22.048 C48.6393557,22.2826667 48.8811335,22.4568889 49.1620224,22.5706667 C49.4429113,22.6844444 49.8038001,22.7946667 50.244689,22.9013333 C50.6713557,23.0151111 50.9824668,23.12 51.1780224,23.216 C51.3735779,23.312 51.4713557,23.456 51.4713557,23.648 C51.4713557,23.8257778 51.3913557,23.9715556 51.2313557,24.0853333 C51.0713557,24.1991111 50.8491335,24.256 50.564689,24.256 C50.2731335,24.256 50.0295779,24.1813333 49.8340224,24.032 C49.6384668,23.8826667 49.5264668,23.6942222 49.4980224,23.4666667 L49.4980224,23.4666667 L47.9940224,23.4666667 C48.0153557,23.8293333 48.1380224,24.16 48.3620224,24.4586667 C48.5860224,24.7573333 48.8900224,24.9937778 49.2740224,25.168 C49.6580224,25.3422222 50.0918001,25.4293333 50.5753557,25.4293333 Z M56.7513557,25.4293333 C57.3273557,25.4293333 57.8482446,25.3031111 58.3140224,25.0506667 C58.7798001,24.7982222 59.1495779,24.4408889 59.4233557,23.9786667 C59.6971335,23.5164444 59.8340224,22.9831111 59.8340224,22.3786667 C59.8340224,21.7742222 59.700689,21.2408889 59.4340224,20.7786667 C59.1673557,20.3164444 58.8029113,19.9591111 58.340689,19.7066667 C57.8784668,19.4542222 57.3629113,19.328 56.7940224,19.328 C56.2251335,19.328 55.7095779,19.4542222 55.2473557,19.7066667 C54.7851335,19.9591111 54.420689,20.3164444 54.1540224,20.7786667 C53.8873557,21.2408889 53.7540224,21.7742222 53.7540224,22.3786667 C53.7540224,22.9831111 53.8838001,23.5164444 54.1433557,23.9786667 C54.4029113,24.4408889 54.7602446,24.7982222 55.2153557,25.0506667 C55.6704668,25.3031111 56.1824668,25.4293333 56.7513557,25.4293333 Z M56.7513557,24.128 C56.324689,24.128 55.9709113,23.9768889 55.6900224,23.6746667 C55.4091335,23.3724444 55.268689,22.9404444 55.268689,22.3786667 C55.268689,21.8168889 55.412689,21.3848889 55.700689,21.0826667 C55.988689,20.7804444 56.3460224,20.6293333 56.772689,20.6293333 C57.1993557,20.6293333 57.5602446,20.7804444 57.8553557,21.0826667 C58.1504668,21.3848889 58.2980224,21.8168889 58.2980224,22.3786667 C58.2980224,22.7555556 58.2269113,23.0755556 58.084689,23.3386667 C57.9424668,23.6017778 57.7522446,23.7991111 57.5140224,23.9306667 C57.2758001,24.0622222 57.0215779,24.128 56.7513557,24.128 Z M63.9300224,25.408 C64.1931335,25.408 64.4100224,25.3244444 64.580689,25.1573333 C64.7513557,24.9902222 64.836689,24.7822222 64.836689,24.5333333 C64.836689,24.2844444 64.7513557,24.0764444 64.580689,23.9093333 C64.4100224,23.7422222 64.1931335,23.6586667 63.9300224,23.6586667 C63.6598001,23.6586667 63.4375779,23.7422222 63.2633557,23.9093333 C63.0891335,24.0764444 63.0020224,24.2844444 63.0020224,24.5333333 C63.0020224,24.7822222 63.0891335,24.9902222 63.2633557,25.1573333 C63.4375779,25.3244444 63.6598001,25.408 63.9300224,25.408 Z M66.276689,25.408 C66.5398001,25.408 66.756689,25.3244444 66.9273557,25.1573333 C67.0980224,24.9902222 67.1833557,24.7822222 67.1833557,24.5333333 C67.1833557,24.2844444 67.0980224,24.0764444 66.9273557,23.9093333 C66.756689,23.7422222 66.5398001,23.6586667 66.276689,23.6586667 C66.0064668,23.6586667 65.7842446,23.7422222 65.6100224,23.9093333 C65.4358001,24.0764444 65.348689,24.2844444 65.348689,24.5333333 C65.348689,24.7822222 65.4358001,24.9902222 65.6100224,25.1573333 C65.7842446,25.3244444 66.0064668,25.408 66.276689,25.408 Z M61.5940224,25.408 C61.8571335,25.408 62.0740224,25.3244444 62.244689,25.1573333 C62.4153557,24.9902222 62.500689,24.7822222 62.500689,24.5333333 C62.500689,24.2844444 62.4153557,24.0764444 62.244689,23.9093333 C62.0740224,23.7422222 61.8571335,23.6586667 61.5940224,23.6586667 C61.3238001,23.6586667 61.1015779,23.7422222 60.9273557,23.9093333 C60.7531335,24.0764444 60.6660224,24.2844444 60.6660224,24.5333333 C60.6660224,24.7822222 60.7531335,24.9902222 60.9273557,25.1573333 C61.1015779,25.3244444 61.3238001,25.408 61.5940224,25.408 Z" id="Reembolso…"></path>
                                <rect id="Rectangle" x="0" y="36.5458613" width="63.9821029" height="4" rx="2"></rect>
                                <rect id="Rectangle-Copy-3" x="0" y="48.5190157" width="63.9821029" height="4" rx="2"></rect>
                                <rect id="Rectangle-Copy-4" x="0" y="60.49217" width="50.0223714" height="4" rx="2"></rect>
                                <rect id="Rectangle-Copy-4" x="48.689038" y="82.1118568" width="13.9597315" height="2.32662192" rx="1"></rect>
                                <rect id="Rectangle-Copy-4" x="48.689038" y="75.1319911" width="13.9597315" height="2.32662192" rx="1"></rect>
                                <rect id="Rectangle" x="0.170022371" y="5.33333333" width="24.4295302" height="2.32662192" rx="1"></rect>
                                <rect id="Rectangle-Copy-5" x="0" y="0" width="16.2863535" height="2.32662192" rx="1"></rect>
                            </g>
                            <g id="Group-36" transform="translate(87.668904, 18.129754)" fill="#000000" fill-rule="nonzero" opacity="0">
                                <g id="沙漏">
                                    <rect id="Rectangle" x="0" y="0" width="13.9597315" height="13.9597315"></rect>
                                </g>
                            </g>
                        </g>
                        <g id="Group-2" transform="translate(8.017897, 84.000000)" fill-rule="nonzero">
                            <circle id="Oval" fill="#00AA66" cx="21.3333333" cy="21.3333333" r="21.3333333"></circle>
                            <path d="M30.4474132,11.2467663 C31.1096516,10.3627335 32.3631521,10.1829336 33.247185,10.845172 C34.0792159,11.4684552 34.287428,12.6154861 33.7569321,13.4852982 L33.6487793,13.6449437 L20.2673497,31.5080318 C19.6052403,32.3918925 18.364196,32.5630682 17.4916555,31.9276236 L17.3326038,31.7990023 L8.51821438,23.9074034 C7.69527742,23.1706208 7.62543547,21.9062183 8.36221803,21.0832813 C9.05295168,20.3117779 10.2074138,20.2021745 11.0271025,20.7985778 L11.18634,20.927285 L18.3733333,27.3626667 L30.4474132,11.2467663 Z" id="Path-2" fill="#FFFFFF"></path>
                        </g>
                    </g>
                    <path d="M172.097561,45.3766938 C175.533442,45.3766938 178.319783,42.599458 178.319783,39.1544715 C178.319783,35.7246612 175.533442,32.9322493 172.097561,32.9322493 C168.66168,32.9322493 165.875339,35.7246612 165.875339,39.1544715 C165.875339,42.599458 168.66168,45.3766938 172.097561,45.3766938 Z" id="Path" fill="#EAEEF9" fill-rule="nonzero"></path>
                    <path d="M181.203252,20.9430894 C183.549485,20.9430894 185.452575,19.0460705 185.452575,16.6937669 C185.452575,14.3566396 183.549485,12.4444444 181.203252,12.4444444 C178.857019,12.4444444 176.95393,14.3566396 176.95393,16.6937669 C176.95393,19.0460705 178.857019,20.9430894 181.203252,20.9430894 Z" id="Path" fill="#EAEEF9" fill-rule="nonzero"></path>
                    <path d="M4.24932249,49.7777778 C6.59555556,49.7777778 8.49864499,47.8807588 8.49864499,45.5284553 C8.49864499,43.1913279 6.59555556,41.2791328 4.24932249,41.2791328 C1.90308943,41.2791328 0,43.1913279 0,45.5284553 C0,47.8807588 1.90308943,49.7777778 4.24932249,49.7777778 Z" id="Path" fill="#EAEEF9" fill-rule="nonzero"></path>
                    <path d="M12.1409214,142.200542 C16.4995122,142.200542 20.0325203,138.664499 20.0325203,134.308943 C20.0325203,129.953388 16.4995122,126.417344 12.1409214,126.417344 C7.78233062,126.417344 4.24932249,129.953388 4.24932249,134.308943 C4.24932249,138.664499 7.78233062,142.200542 12.1409214,142.200542 Z" id="Path" fill="#EAEEF9" fill-rule="nonzero"></path>
                </g>
            </g>
        </g>
    </g>
</svg>