<?xml version="1.0" encoding="UTF-8"?>
<svg width="177px" height="148px" viewBox="0 0 177 148" version="1.1" xmlns="http://www.w3.org/2000/svg" xmlns:xlink="http://www.w3.org/1999/xlink">
    <title>Group 40</title>
    <defs>
        <linearGradient x1="43.126397%" y1="100%" x2="43.126397%" y2="50%" id="linearGradient-1">
            <stop stop-color="#95BEFF" offset="0%"></stop>
            <stop stop-color="#438CFF" offset="100%"></stop>
        </linearGradient>
        <linearGradient x1="45.765974%" y1="26.3273503%" x2="50%" y2="69.9824298%" id="linearGradient-2">
            <stop stop-color="#95BEFF" offset="0%"></stop>
            <stop stop-color="#438CFF" offset="100%"></stop>
        </linearGradient>
        <linearGradient x1="43.126397%" y1="54.6212434%" x2="45.0279692%" y2="48.107849%" id="linearGradient-3">
            <stop stop-color="#95BEFF" offset="0%"></stop>
            <stop stop-color="#0069FF" offset="100%"></stop>
        </linearGradient>
        <linearGradient x1="58.6887152%" y1="7.81246143%" x2="36.1338927%" y2="88.9947263%" id="linearGradient-4">
            <stop stop-color="#FFEDA8" offset="0%"></stop>
            <stop stop-color="#FFDC55" offset="100%"></stop>
        </linearGradient>
    </defs>
    <g id="Web" stroke="none" stroke-width="1" fill="none" fill-rule="evenodd">
        <g id="还款处理中" transform="translate(-620.000000, -289.000000)">
            <g id="Group-40" transform="translate(620.000000, 289.000000)">
                <g id="Group-39" transform="translate(28.431747, 0.000000)">
                    <g id="Group-38">
                        <path d="M18.3621698,28.4317468 C28.5033162,28.4317468 36.7243396,22.0670835 36.7243396,14.2158734 C36.7243396,6.36466332 28.5033162,6.17455119e-13 18.3621698,6.17455119e-13 C8.22102345,6.17455119e-13 0,6.36466332 0,14.2158734 C0,16.7208958 0.903508233,21.3376285 4.50279119,24.8777785 C8.13449141,28.4498131 11.7671492,28.2163005 12.8163325,28.3443552 C14.7398255,28.5791209 16.7196737,28.4317943 18.3621698,28.4317468 Z" id="Oval" fill="#CADFFF" fill-rule="nonzero"></path>
                        <path d="M22.237721,18.2237321 L41.8474897,18.2237321 L41.8474897,28.4317468 L13.5186692,28.4317468 C15.9954048,28.1780429 18.067764,26.7675995 19.7357468,24.2004168 C21.4037296,21.6332341 22.237721,19.6410058 22.237721,18.2237321 Z" id="Path-12" fill="url(#linearGradient-1)" fill-rule="nonzero"></path>
                        <path d="M15.6256997,1.5436378e-12 L115.518129,1.5436378e-12 C123.8024,1.5459212e-12 130.518129,6.71572875 130.518129,15 C130.518129,15.0659416 130.517694,15.1318824 130.516824,15.1978182 L128.7832,146.642202 L128.7832,146.642202 L53.7813933,146.642202 C43.8402678,146.642202 35.7813933,138.583327 35.7813933,128.642202 L35.7813933,27.2713946 L35.7813933,27.2713946 C35.7813933,20.7117692 34.0842926,14.7408123 30.6900913,9.35852388 C26.4141639,3.72470795 21.3927001,0.605199992 15.6256997,1.5436378e-12 Z" id="Path-10" fill="url(#linearGradient-2)" fill-rule="nonzero"></path>
                        <path d="M41.8206085,8.29259282 L41.8206085,126.575078 C41.8206085,132.097925 46.297761,136.575078 51.8206085,136.575078 C51.8843657,136.575078 51.9481214,136.574468 52.011867,136.573249 L120.926051,135.254965 L120.926051,135.254965 L120.926051,18.2925928 C120.926051,12.7697453 116.448899,8.29259282 110.926051,8.29259282 L41.8206085,8.29259282 L41.8206085,8.29259282 Z" id="Path-2" fill="#FFFFFF"></path>
                        <path d="M68.1245459,124.902245 C67.3725013,131.512235 65.830686,136.542683 63.4991,139.993589 C61.1675139,143.444496 59.065211,145.6607 57.1921912,146.642202 L128.701775,146.642202 L128.701775,124.902245 L68.1245459,124.902245 Z" id="Path-15" fill="url(#linearGradient-3)" fill-rule="nonzero"></path>
                        <path d="M77.342758,126.818737 C77.0835762,132.504537 75.244853,137.005681 71.8265882,140.322169 C68.4083234,143.638657 63.4105172,145.770489 56.8331694,146.717665 L131.658146,146.717665 C136.691736,145.770489 140.54067,143.638657 143.204947,140.322169 C145.869225,137.005681 147.348847,132.504537 147.643812,126.818737 L77.342758,126.818737 Z" id="Path-14" fill="#CADFFF" fill-rule="nonzero"></path>
                    </g>
                    <g id="Group-37" transform="translate(49.584723, 23.693122)">
                        <text id="Pagar" font-family="Roboto-Medium, Roboto" font-size="11" font-weight="400" fill="#A9CBFF">
                            <tspan x="17.0418392" y="23.5592049">Pagar</tspan>
                        </text>
                        <rect id="Rectangle" fill="#CADFFF" fill-rule="nonzero" x="0.170833487" y="42.6476202" width="65.1560864" height="2.36931223" rx="1"></rect>
                        <rect id="Rectangle-Copy-3" fill="#CADFFF" fill-rule="nonzero" x="0.170833487" y="52.1248692" width="65.1560864" height="2.36931223" rx="1"></rect>
                        <rect id="Rectangle-Copy-4" fill="#CADFFF" fill-rule="nonzero" x="0.170833487" y="61.6021181" width="50.940213" height="2.36931223" rx="1"></rect>
                        <rect id="Rectangle-Copy-4" fill="#CADFFF" fill-rule="nonzero" x="51.1110465" y="78.1873037" width="14.2158734" height="2.36931223" rx="1"></rect>
                        <rect id="Rectangle-Copy-4" fill="#CADFFF" fill-rule="nonzero" x="51.1110465" y="71.079367" width="14.2158734" height="2.36931223" rx="1"></rect>
                        <rect id="Rectangle" fill="#CADFFF" fill-rule="nonzero" x="0.343975535" y="5.43119266" width="24.8777785" height="2.36931223" rx="1"></rect>
                        <rect id="Rectangle-Copy-5" fill="#CADFFF" fill-rule="nonzero" x="0.170833487" y="0" width="16.5851856" height="2.36931223" rx="1"></rect>
                    </g>
                    <g id="Group-36" transform="translate(90.033865, 13.723785)" fill-rule="nonzero">
                        <circle id="Oval" fill="url(#linearGradient-4)" cx="11.8465612" cy="11.8465612" r="11.8465612"></circle>
                        <g id="沙漏" transform="translate(4.738624, 4.738624)">
                            <rect id="Rectangle" fill="#000000" opacity="0" x="0" y="0" width="14.2158734" height="14.2158734"></rect>
                            <path d="M11.95455,1.09673242 C12.1837115,1.09673242 12.3694758,1.28266327 12.3694758,1.51203306 C12.3694758,1.73811265 12.1889731,1.92198886 11.9643373,1.92720875 L11.95455,1.92731981 L10.4372693,1.92731981 L10.4372693,4.0925195 L10.4371582,4.11096959 C10.431859,4.55511241 10.2342993,4.97515203 9.89556675,5.26246922 L9.88526579,5.27113202 L7.752149,7.04796349 L9.93520182,8.86640137 C10.2800652,9.15374302 10.481758,9.57772655 10.4871081,10.0265777 L10.4872192,10.0450278 L10.4872192,12.233009 L11.95455,12.233009 C12.1837115,12.233009 12.3694758,12.4189537 12.3694758,12.6483096 C12.3694758,12.8744031 12.1889731,13.0582932 11.9643373,13.0636102 L11.95455,13.0636102 L2.21967536,13.0636102 C1.99051381,13.0636102 1.80474955,12.8776794 1.80474955,12.6483096 C1.80474955,12.42223 1.98525227,12.2383538 2.20988806,12.2331339 L2.21967536,12.2330228 L3.71979707,12.233009 L3.71979707,10.0450139 L3.71992201,10.0265499 C3.72522126,9.5824071 3.92278091,9.16236748 4.26151347,8.87505029 L4.27181443,8.86638749 L6.45486725,7.0479496 L4.32176434,5.27113202 C3.97690616,4.98378774 3.77521864,4.55980459 3.76987193,4.11095571 L3.76976087,4.0925195 L3.76974698,1.92731981 L2.21967536,1.92731981 C1.99051381,1.92731981 1.80474955,1.74138896 1.80474955,1.51203306 C1.80474955,1.28593959 1.98525227,1.10204949 2.20988806,1.09673242 L2.21967536,1.09673242 L11.95455,1.09673242 Z M9.60740377,1.92731981 L4.59961248,1.92731981 L4.59961248,4.0925195 C4.59961248,4.29646097 4.68815053,4.49035701 4.84228188,4.62390718 L4.85263837,4.63270881 L7.10349424,6.50764924 L9.35439177,4.63272269 L9.36474825,4.62392107 C9.5166951,4.49225533 9.60500175,4.30183638 9.60734824,4.10079358 L9.60740377,4.0925195 L9.60740377,1.92731981 L9.60740377,1.92731981 Z" id="Shape" fill="#FFFFFF"></path>
                        </g>
                    </g>
                </g>
                <g id="cash" transform="translate(0.000000, 40.278308)">
                    <rect id="Rectangle" fill="#000000" fill-rule="nonzero" opacity="0" x="0" y="0" width="98.3264577" height="98.3264577"></rect>
                    <g id="Group-5" transform="translate(1.184656, 3.553968)">
                        <path d="M30.2926988,5.8470191 C27.60274,5.18200797 25.5023659,3.10849634 24.8286465,0.452848833 L24.7130918,0 L24.5980406,0.452848833 C23.9239559,3.10873797 21.8230882,5.18225904 19.1327295,5.8470191 L18.6747904,5.96110121 L19.1327295,6.07468624 C21.8232488,6.73948138 23.9241682,8.81324465 24.5980406,11.4693536 L24.7130918,11.9222024 L24.8286465,11.4693536 C25.5021535,8.81348629 27.6025795,6.73973245 30.2926988,6.07468624 L30.7521485,5.96110121 L30.2926988,5.8470191 L30.2926988,5.8470191 Z" id="Path" fill="#FFC600" fill-rule="nonzero"></path>
                        <path d="M82.2897648,78.8390621 C78.5346561,77.9100582 75.6026375,75.015405 74.6616416,71.3081512 L74.5000161,70.6761015 L74.3391457,71.3081512 C73.3977991,75.0158332 70.46502,77.9105684 66.7092603,78.8390621 L66.0700589,78.9973852 L66.7092603,79.1562054 C70.465521,80.0846132 73.3985058,82.9800291 74.3391457,86.688359 L74.5000161,87.3206573 L74.6616416,86.688359 C75.6017801,82.980373 78.5340697,80.0849746 82.2897648,79.1562054 L82.931232,78.9973852 L82.2897648,78.8390621 L82.2897648,78.8390621 Z" id="Path" fill="#FF6700" fill-rule="nonzero"></path>
                        <path d="M49.2227321,77.8928516 C46.5887829,77.2413075 44.5321751,75.210909 43.8722206,72.6105265 L43.7589316,72.167371 L43.6461462,72.6105265 C42.985977,75.2112349 40.9288105,77.2417074 38.2943758,77.8928516 L37.8460033,78.0041997 L38.2943758,78.1152993 C40.9289516,78.7666699 42.9861195,80.7974303 43.6461462,83.39837 L43.7589316,83.8422712 L43.8722206,83.39837 C44.5319823,80.7977281 46.5886133,78.7670201 49.2227321,78.1152993 L49.6726152,78.0041997 L49.2227321,77.8928516 L49.2227321,77.8928516 Z" id="Path" fill="#5D8EF9" fill-rule="nonzero"></path>
                        <path d="M18.4061697,10.7212334 C16.831273,10.3317293 15.6015454,9.11776879 15.2068895,7.56297318 L15.1391679,7.2980243 L15.071698,7.56297318 C14.6768557,9.11784293 13.4469482,10.33179 11.8719144,10.7212334 L11.6037972,10.7878434 L11.8719144,10.8544535 C13.4473547,11.2438182 14.6774312,12.4583142 15.071698,14.0137079 L15.1391679,14.2781597 L15.2068895,14.0137079 C15.6009699,12.4583883 16.8308665,11.2438788 18.4061697,10.8544535 L18.6750421,10.7878434 L18.4061697,10.7212334 L18.4061697,10.7212334 Z" id="Path" fill="#FFC600" fill-rule="nonzero"></path>
                        <path d="M7.99494228,18.9412381 L87.0094419,19.193192 C88.3418078,19.1974405 88.8246148,19.3369197 89.3114966,19.597922 C89.7983785,19.8589243 90.1805706,20.2411028 90.4415902,20.7279753 C90.7026098,21.2148479 90.8421063,21.69765 90.8464022,23.0300157 L90.9717537,61.9068835 C90.9770959,63.5637291 89.6382878,64.9111986 87.9814422,64.9165408 C87.9750292,64.9165615 87.9686162,64.9165616 87.9622032,64.9165412 L8.94770364,64.6645873 C7.61533774,64.6603388 7.13253073,64.5208596 6.64564887,64.2598573 C6.15876702,63.998855 5.77657489,63.6166765 5.51555527,63.1298039 C5.25453565,62.6429314 5.11503923,62.1601293 5.11074326,60.8277636 L4.98539181,21.9508958 C4.98004961,20.2940502 6.31885767,18.9465807 7.97570331,18.9412385 C7.98211628,18.9412178 7.9885293,18.9412177 7.99494228,18.9412381 Z" id="Rectangle" fill="#029A4A" transform="translate(47.978573, 41.928890) rotate(-15.000000) translate(-47.978573, -41.928890) "></path>
                        <path d="M74.0280267,24.4455521 L21.5903446,24.4455521 C20.7316143,29.715947 16.5175169,33.8760918 11.1790895,34.7238785 L11.1790895,49.5826391 C16.5175169,50.4301772 20.7316143,54.5910676 21.5903446,59.8614625 L74.0280267,59.8614625 C74.886757,54.5910676 79.1008544,50.4301772 84.4392819,49.5826391 L84.4392819,34.7238785 C79.1008544,33.8763403 74.886757,29.715947 74.0280267,24.4455521 Z" id="Path" fill="#F0F6CF" fill-rule="nonzero"></path>
                        <path d="M82.1324669,20.4688335 L13.4859044,20.4688335 C9.99282819,20.4688335 7.15103764,23.27416 7.15103764,26.7227206 L7.15103764,57.5837969 C7.15103764,61.0323576 9.99282819,63.8381811 13.4859044,63.8381811 L82.1324669,63.8381811 C85.6255431,63.8381811 88.4673337,61.0323576 88.4673337,57.5837969 L88.4673337,26.7227206 C88.4673337,23.27416 85.6255431,20.4688335 82.1324669,20.4688335 Z M84.4392819,49.5828876 C79.1008544,50.4304258 74.886757,54.5913162 74.0280267,59.8617111 L21.5903446,59.8617111 C20.7316143,54.5913162 16.5175169,50.4304258 11.1790895,49.5828876 L11.1790895,34.724127 C16.5175169,33.8763403 20.7316143,29.7161956 21.5903446,24.4458007 L74.0280267,24.4458007 C74.886757,29.7161956 79.1008544,33.8763403 84.4392819,34.724127 L84.4392819,49.5828876 Z" id="Shape" fill="#A8D147" fill-rule="nonzero"></path>
                        <path d="M47.9783234,27.5719158 C39.6731981,27.5719158 32.9405126,34.218308 32.9405126,42.4185782 C32.9405126,50.6178635 39.6731981,57.2649943 47.9783234,57.2649943 C56.2839474,57.2649943 63.0166329,50.6178635 63.0166329,42.4185782 C63.0166329,34.218308 56.2839474,27.5719158 47.9783234,27.5719158 Z" id="Path" fill="#FFBE1B" fill-rule="nonzero"></path>
                        <path d="M47.9787151,29.6928324 C40.8599911,29.6928324 35.0888069,35.3896255 35.0888069,42.4173479 C35.0888069,49.4453515 40.8599911,55.1429881 47.9787151,55.1429881 C55.0971544,55.1429881 60.8683386,49.4453515 60.8683386,42.4173479 C60.8683386,35.3893444 55.0971544,29.6928324 47.9787151,29.6928324 Z" id="Path" fill="#FFE37B" fill-rule="nonzero"></path>
                        <path d="M48.9413277,50.5009054 L48.9413277,48.5746823 C49.5253991,48.5171831 50.0565189,48.3878099 50.5346872,48.1865627 C51.0128555,47.9853155 51.4220263,47.7201803 51.7621998,47.3911572 C52.1023732,47.062134 52.3655262,46.6724172 52.5516588,46.2220068 C52.7377915,45.7715965 52.8308578,45.2620897 52.8308578,44.6934865 C52.8308578,44.0482178 52.7217455,43.4955866 52.5035211,43.035593 C52.2852966,42.5755995 51.9836334,42.1731051 51.5985314,41.8281099 C51.2134294,41.4831147 50.7561208,41.1748551 50.2266056,40.9033312 C49.6970904,40.6318072 49.121042,40.3650748 48.4984604,40.103134 C48.1775421,39.9625804 47.9095753,39.823624 47.69456,39.6862648 C47.4795448,39.5489056 47.3078535,39.4067549 47.1794861,39.2598125 C47.0511188,39.1128701 46.9612617,38.9531501 46.9099147,38.7806525 C46.8585678,38.6081549 46.8328943,38.4132965 46.8328943,38.1960773 C46.8328943,37.9916357 46.8585678,37.7983745 46.9099147,37.6162938 C46.9612617,37.434213 47.0398867,37.2760902 47.1457897,37.1419254 C47.2516927,37.0077606 47.3896876,36.9007482 47.5597743,36.8208882 C47.729861,36.7410282 47.9336442,36.7010982 48.1711237,36.7010982 C48.3829298,36.7010982 48.57869,36.739431 48.7584043,36.8160966 C48.9381185,36.8927622 49.0953685,37.0157466 49.2301542,37.1850498 C49.3649399,37.354353 49.4692384,37.569975 49.5430496,37.8319157 C49.6168608,38.0938565 49.6537664,38.4069077 49.6537664,38.7710693 L49.6537664,38.7710693 L52.9078782,38.7710693 C52.9078782,38.1449669 52.818021,37.5763638 52.6383068,37.0652598 C52.4585925,36.5541558 52.2034625,36.1085371 51.8729166,35.7284035 C51.5423707,35.3482699 51.144432,35.0400103 50.6791004,34.8036247 C50.2137689,34.5672391 49.698695,34.4075192 49.1338787,34.3244648 L49.1338787,34.3244648 L49.1338787,32.2640769 L47.6030983,32.2640769 L47.6030983,34.286132 C46.9997719,34.3436312 46.4510015,34.4761988 45.9567873,34.6838347 C45.4625731,34.8914707 45.0389609,35.1629947 44.6859508,35.4984067 C44.3329406,35.8338187 44.06016,36.228327 43.867609,36.6819318 C43.6750581,37.1355366 43.5787826,37.633863 43.5787826,38.1769109 C43.5787826,38.8285685 43.6846856,39.3843941 43.8964917,39.8443876 C44.1082978,40.3043812 44.4067518,40.7036812 44.7918538,41.0422875 C45.1769558,41.3808939 45.635869,41.6811675 46.1685934,41.9431083 C46.7013178,42.2050491 47.2853892,42.4637955 47.9208075,42.7193474 C48.2224707,42.8471234 48.4792053,42.9748994 48.6910114,43.1026754 C48.9028175,43.2304514 49.0745088,43.3694078 49.2060853,43.5195446 C49.3376618,43.6696814 49.4339373,43.8405818 49.4949118,44.0322458 C49.5558863,44.2239098 49.5863735,44.4507121 49.5863735,44.7126529 C49.5863735,44.9170945 49.5590955,45.1071613 49.5045394,45.2828533 C49.4499833,45.4585453 49.3649399,45.6118765 49.2494093,45.7428469 C49.1338787,45.8738173 48.9878609,45.9776352 48.8113558,46.0543008 C48.6348507,46.1309664 48.4246492,46.1692992 48.1807513,46.1692992 C47.9368534,46.1692992 47.702583,46.1325636 47.4779402,46.0590924 C47.2532973,45.9856212 47.054328,45.8626369 46.8810321,45.6901393 C46.7077362,45.5176417 46.5697413,45.2892421 46.4670475,45.0049405 C46.3643536,44.7206389 46.3130067,44.3644633 46.3130067,43.9364138 L46.3130067,43.9364138 L43.0685224,43.9364138 C43.0685224,44.7222361 43.1904714,45.3946573 43.4343693,45.9536772 C43.6782672,46.5126972 44.0023947,46.9774824 44.4067518,47.3480328 C44.8111089,47.7185831 45.2748359,47.9996903 45.7979328,48.1913543 C46.3210296,48.3830183 46.8585678,48.5075999 47.4105473,48.5650991 L47.4105473,48.5650991 L47.4105473,50.5009054 L48.9413277,50.5009054 Z" id="$" fill="#FFFFFF" fill-rule="nonzero"></path>
                        <polygon id="Rectangle" fill="#FFFFFF" points="47.321332 32.2640769 48.9490237 32.2640769 48.9490237 51.0286202 47.321332 51.0286202"></polygon>
                    </g>
                </g>
            </g>
        </g>
    </g>
</svg>