<?xml version="1.0" standalone="no"?><!DOCTYPE svg PUBLIC "-//W3C//DTD SVG 1.1//EN" "http://www.w3.org/Graphics/SVG/1.1/DTD/svg11.dtd"><svg t="1641817138417" class="icon" viewBox="0 0 1024 1024" version="1.1" xmlns="http://www.w3.org/2000/svg" p-id="16291" xmlns:xlink="http://www.w3.org/1999/xlink" width="64" height="64"><defs><style type="text/css"></style></defs><path d="M512 1024a512 512 0 1 1 512-512 512 512 0 0 1-512 512z m0-992a480 480 0 1 0 480 480A480 480 0 0 0 512 32z m224 656H288a32 32 0 0 1-32-32V368a32 32 0 0 1 32-32h448a32 32 0 0 1 32 32v288a32 32 0 0 1-32 32z m-78.608-32l-97.28-94.064-24.512 24.512a32 32 0 0 1-45.248 0l-25.28-25.28L367.776 656h289.6zM288 656h32.976l120.448-118.4L288 384.096V656z m30.256-288L512 560l195.296-192H318.256zM736 386.048L584.512 537.6l120.464 118.4H736V386.048z" p-id="16292" fill="#438CFF"></path></svg>