<?xml version="1.0" encoding="UTF-8"?>
<svg width="272px" height="186px" viewBox="0 0 272 186" version="1.1" xmlns="http://www.w3.org/2000/svg" xmlns:xlink="http://www.w3.org/1999/xlink">
    <title>Group 29</title>
    <defs>
        <path d="M15.3833112,-6.21504185e-16 L84.6166888,6.21504185e-16 C89.9658012,-3.61111829e-16 91.9055187,0.556953667 93.8610742,1.60279622 C95.8166298,2.64863878 97.3513612,4.18337022 98.3972038,6.13892578 C99.4430463,8.09448133 100,10.0341988 100,15.3833112 L100,84.6166888 C100,89.9658012 99.4430463,91.9055187 98.3972038,93.8610742 C97.3513612,95.8166298 95.8166298,97.3513612 93.8610742,98.3972038 C91.9055187,99.4430463 89.9658012,100 84.6166888,100 L15.3833112,100 C10.0341988,100 8.09448133,99.4430463 6.13892578,98.3972038 C4.18337022,97.3513612 2.64863878,95.8166298 1.60279622,93.8610742 C0.556953667,91.9055187 2.4074122e-16,89.9658012 -4.14336123e-16,84.6166888 L4.14336123e-16,15.3833112 C-2.4074122e-16,10.0341988 0.556953667,8.09448133 1.60279622,6.13892578 C2.64863878,4.18337022 4.18337022,2.64863878 6.13892578,1.60279622 C8.09448133,0.556953667 10.0341988,3.61111829e-16 15.3833112,-6.21504185e-16 Z" id="path-1"></path>
        <path d="M41.9107449,54.3533093 C38.6829373,55.8267276 34.5462607,56.5052157 29.500715,56.3887736 C24.5000842,56.273368 20.6805755,55.59074 18.042189,54.3408896 L18.0421948,54.3408774 C17.6501205,54.1551449 17.4225323,53.7377871 17.4787423,53.307602 C17.5682519,52.6225685 17.7728025,52.1311089 18.0923942,51.8332232 C18.8850803,51.0943746 19.9464233,50.5792838 20.6645457,50.0065897 C21.6195347,49.2449971 22.0204603,48.6308095 22.8769745,48.1709574 C23.8954376,47.624157 25.2412919,47.3634702 25.8852707,46.9614906 C26.89056,46.3339765 27.0297946,45.188796 27.0297946,45.188796 C27.0297946,45.188796 28.9611716,45.188796 32.8239257,45.188796 C33.1097186,45.9909918 33.463264,46.5185204 33.8845618,46.7713819 C35.270652,47.6033083 36.6734101,47.9456545 37.8889176,48.6501084 C38.6274267,49.0781153 38.9954634,49.9380385 39.7258267,50.4300059 C40.3589799,50.8564933 41.3736801,51.0931188 41.8261919,51.6907379 C42.1319099,52.0944906 42.3484686,52.6130617 42.475868,53.2464511 L42.47583,53.2464587 C42.5674326,53.7018774 42.3333384,54.1604053 41.9107449,54.3533093 Z" id="path-3"></path>
        <filter x="-1.4%" y="-3.6%" width="102.7%" height="107.1%" filterUnits="objectBoundingBox" id="filter-4">
            <feOffset dx="0.8" dy="0" in="SourceAlpha" result="shadowOffsetInner1"></feOffset>
            <feComposite in="shadowOffsetInner1" in2="SourceAlpha" operator="arithmetic" k2="-1" k3="1" result="shadowInnerInner1"></feComposite>
            <feColorMatrix values="0 0 0 0 1   0 0 0 0 0.831372549   0 0 0 0 0.337254902  0 0 0 1 0" type="matrix" in="shadowInnerInner1" result="shadowMatrixInner1"></feColorMatrix>
            <feOffset dx="-0.8" dy="0" in="SourceAlpha" result="shadowOffsetInner2"></feOffset>
            <feComposite in="shadowOffsetInner2" in2="SourceAlpha" operator="arithmetic" k2="-1" k3="1" result="shadowInnerInner2"></feComposite>
            <feColorMatrix values="0 0 0 0 1   0 0 0 0 0.831372549   0 0 0 0 0.337254902  0 0 0 1 0" type="matrix" in="shadowInnerInner2" result="shadowMatrixInner2"></feColorMatrix>
            <feMerge>
                <feMergeNode in="shadowMatrixInner1"></feMergeNode>
                <feMergeNode in="shadowMatrixInner2"></feMergeNode>
            </feMerge>
        </filter>
        <filter x="-13.9%" y="-49.2%" width="127.8%" height="198.5%" filterUnits="objectBoundingBox" id="filter-5">
            <feGaussianBlur stdDeviation="1" in="SourceGraphic"></feGaussianBlur>
        </filter>
        <linearGradient x1="50%" y1="39.6354101%" x2="50%" y2="88.6564244%" id="linearGradient-6">
            <stop stop-color="#FFFFFA" offset="0%"></stop>
            <stop stop-color="#FFFC3A" offset="100%"></stop>
        </linearGradient>
        <path d="M5.74921875,15.15625 C6.36380208,15.1666667 6.94973958,15.0846354 7.50703125,14.9101562 C8.06432292,14.7356771 8.56171875,14.4791667 8.99921875,14.140625 C9.43671875,13.8020833 9.8,13.3854167 10.0890625,12.890625 C10.378125,12.3958333 10.5591146,11.8333333 10.6320313,11.203125 L10.6320313,11.203125 L8.35859375,11.21875 C8.22317708,11.8854167 7.94583333,12.3971354 7.5265625,12.7539062 C7.10729167,13.1106771 6.54869792,13.2760417 5.85078125,13.25 C5.53307292,13.2395833 5.27135417,13.1757812 5.065625,13.0585937 C4.85989583,12.9414062 4.69453125,12.7903646 4.56953125,12.6054687 C4.44453125,12.4205729 4.35598958,12.2083333 4.30390625,11.96875 C4.25182292,11.7291667 4.22057292,11.4804687 4.21015625,11.2226562 C4.19973958,10.9648437 4.20494792,10.7044271 4.22578125,10.4414062 C4.24661458,10.1783854 4.27265625,9.93229167 4.30390625,9.703125 L4.30390625,9.703125 L4.40546875,8.9296875 C4.44192708,8.65364583 4.4953125,8.37109375 4.565625,8.08203125 C4.6359375,7.79296875 4.72447917,7.515625 4.83125,7.25 C4.93802083,6.984375 5.06822917,6.73567708 5.221875,6.50390625 C5.37552083,6.27213542 5.55520833,6.07161458 5.7609375,5.90234375 C5.96666667,5.73307292 6.20234375,5.6015625 6.46796875,5.5078125 C6.73359375,5.4140625 7.03307292,5.37239583 7.36640625,5.3828125 C7.70494792,5.39322917 7.9875,5.45052083 8.2140625,5.5546875 C8.440625,5.65885417 8.62161458,5.80208333 8.75703125,5.984375 C8.89244792,6.16666667 8.98880208,6.38541667 9.04609375,6.640625 C9.10338542,6.89583333 9.13203125,7.1796875 9.13203125,7.4921875 L9.13203125,7.4921875 L11.4132813,7.5 C11.3820313,6.90625 11.2752604,6.36328125 11.0929688,5.87109375 C10.9106771,5.37890625 10.6541667,4.95703125 10.3234375,4.60546875 C9.99270833,4.25390625 9.59036458,3.97916667 9.11640625,3.78125 C8.64244792,3.58333333 8.09557292,3.47916667 7.47578125,3.46875 C6.94973958,3.45833333 6.46015625,3.51953125 6.00703125,3.65234375 C5.55390625,3.78515625 5.13854167,3.97526042 4.7609375,4.22265625 C4.38333333,4.47005208 4.04479167,4.765625 3.7453125,5.109375 C3.44583333,5.453125 3.1828125,5.82942708 2.95625,6.23828125 C2.7296875,6.64713542 2.54348958,7.08203125 2.39765625,7.54296875 C2.25182292,8.00390625 2.14505208,8.47135417 2.07734375,8.9453125 L2.07734375,8.9453125 L1.97578125,9.6953125 C1.91848958,10.1432292 1.9015625,10.5885417 1.925,11.03125 C1.9484375,11.4739583 2.01484375,11.8958333 2.12421875,12.296875 C2.23359375,12.6979167 2.38854167,13.0703125 2.5890625,13.4140625 C2.78958333,13.7578125 3.03828125,14.0572917 3.33515625,14.3125 C3.63203125,14.5677083 3.98098958,14.7695312 4.38203125,14.9179687 C4.78307292,15.0664062 5.23880208,15.1458333 5.74921875,15.15625 Z M13.6164063,15 L14.6789063,8.984375 C14.8872396,8.73958333 15.1177083,8.54817708 15.3703125,8.41015625 C15.6229167,8.27213542 15.9132813,8.20833333 16.2414063,8.21875 C16.4653646,8.22395833 16.6463542,8.26432292 16.784375,8.33984375 C16.9223958,8.41536458 17.0265625,8.515625 17.096875,8.640625 C17.1671875,8.765625 17.2101563,8.9140625 17.2257813,9.0859375 C17.2414063,9.2578125 17.2361979,9.4453125 17.2101563,9.6484375 L17.2101563,9.6484375 L16.3117188,15 L18.5148438,15 L19.4054688,9.671875 C19.4471354,9.25 19.440625,8.84375 19.3859375,8.453125 C19.33125,8.0625 19.2153646,7.71484375 19.0382813,7.41015625 C18.8611979,7.10546875 18.6151042,6.86197917 18.3,6.6796875 C17.9848958,6.49739583 17.5903646,6.40104167 17.1164063,6.390625 C16.6528646,6.38541667 16.2309896,6.48177083 15.8507813,6.6796875 C15.4705729,6.87760417 15.1294271,7.14583333 14.8273438,7.484375 L14.8273438,7.484375 L15.7023438,3 L13.4914063,3 L11.4132813,15 L13.6164063,15 Z M22.8585938,15.15625 C23.2856771,15.1666667 23.6776042,15.0898438 24.034375,14.9257812 C24.3911458,14.7617188 24.7179688,14.53125 25.0148438,14.234375 C25.0096354,14.3697917 25.0122396,14.4986979 25.0226563,14.6210938 C25.0330729,14.7434896 25.0591146,14.8697917 25.1007813,15 L25.1007813,15 L27.2648438,15 L27.2726563,14.8515625 C27.2153646,14.7057292 27.1776042,14.5533854 27.159375,14.3945312 C27.1411458,14.2356771 27.1346354,14.0755208 27.1398438,13.9140625 C27.1450521,13.7526042 27.1580729,13.5911458 27.1789063,13.4296875 C27.1997396,13.2682292 27.2231771,13.109375 27.2492188,12.953125 L27.2492188,12.953125 L27.8273438,9.3671875 C27.8742188,8.8984375 27.8299479,8.48177083 27.6945313,8.1171875 C27.5591146,7.75260417 27.3585938,7.44401042 27.0929688,7.19140625 C26.8273438,6.93880208 26.5057292,6.74479167 26.128125,6.609375 C25.7505208,6.47395833 25.3403646,6.40104167 24.8976563,6.390625 C24.4809896,6.38541667 24.0565104,6.43359375 23.6242188,6.53515625 C23.1919271,6.63671875 22.7973958,6.79947917 22.440625,7.0234375 C22.0838542,7.24739583 21.7882813,7.53125 21.5539063,7.875 C21.3195313,8.21875 21.1919271,8.625 21.1710938,9.09375 L21.1710938,9.09375 L23.3820313,9.0859375 C23.4497396,8.74739583 23.6033854,8.48828125 23.8429688,8.30859375 C24.0825521,8.12890625 24.3742188,8.04427083 24.7179688,8.0546875 C24.9106771,8.05989583 25.0708333,8.09765625 25.1984375,8.16796875 C25.3260417,8.23828125 25.425,8.33072917 25.4953125,8.4453125 C25.565625,8.55989583 25.6085938,8.69401042 25.6242188,8.84765625 C25.6398438,9.00130208 25.6320313,9.1640625 25.6007813,9.3359375 L25.6007813,9.3359375 L25.4914063,9.84375 L24.4601563,9.828125 C24.1476563,9.828125 23.8299479,9.84765625 23.5070313,9.88671875 C23.1841146,9.92578125 22.8729167,9.98958333 22.5734375,10.078125 C22.2739583,10.1666667 21.9914063,10.2825521 21.7257813,10.4257812 C21.4601563,10.5690104 21.2270833,10.7473958 21.0265625,10.9609375 C20.8260417,11.1744792 20.6645833,11.4231771 20.5421875,11.7070312 C20.4197917,11.9908854 20.3507813,12.3177083 20.3351563,12.6875 C20.3195313,13.0520833 20.3768229,13.3854167 20.5070313,13.6875 C20.6372396,13.9895833 20.8182292,14.2486979 21.05,14.4648438 C21.2817708,14.6809896 21.5526042,14.8489583 21.8625,14.96875 C22.1723958,15.0885417 22.5044271,15.1510417 22.8585938,15.15625 Z M23.4054688,13.4453125 C23.1294271,13.4401042 22.9119792,13.3554688 22.753125,13.1914062 C22.5942708,13.0273438 22.5356771,12.8046875 22.5773438,12.5234375 C22.6085938,12.2734375 22.6893229,12.0625 22.8195313,11.890625 C22.9497396,11.71875 23.1072917,11.578125 23.2921875,11.46875 C23.4770833,11.359375 23.6815104,11.2799479 23.9054688,11.2304688 C24.1294271,11.1809896 24.3533854,11.1536458 24.5773438,11.1484375 L24.5773438,11.1484375 L25.3429688,11.15625 L25.0695313,12.6171875 C24.8611979,12.8671875 24.6151042,13.0703125 24.33125,13.2265625 C24.0473958,13.3828125 23.7388021,13.4557292 23.4054688,13.4453125 Z M30.8351563,15 L31.8898438,9.015625 C32.0877604,8.77604167 32.3078125,8.58203125 32.55,8.43359375 C32.7921875,8.28515625 33.0747396,8.21614583 33.3976563,8.2265625 C33.6164063,8.23177083 33.7908854,8.27083333 33.9210938,8.34375 C34.0513021,8.41666667 34.1489583,8.515625 34.2140625,8.640625 C34.2791667,8.765625 34.315625,8.91145833 34.3234375,9.078125 C34.33125,9.24479167 34.3247396,9.42447917 34.3039063,9.6171875 L34.3039063,9.6171875 L33.4054688,15 L35.6085938,15 L36.5929688,9.3671875 L36.6164063,9.1875 C36.7101563,9.046875 36.8104167,8.91666667 36.9171875,8.796875 C37.0239583,8.67708333 37.1411458,8.57421875 37.26875,8.48828125 C37.3963542,8.40234375 37.534375,8.3359375 37.6828125,8.2890625 C37.83125,8.2421875 37.9940104,8.21875 38.1710938,8.21875 C38.3898438,8.22395833 38.5643229,8.26171875 38.6945313,8.33203125 C38.8247396,8.40234375 38.9236979,8.5 38.9914063,8.625 C39.0591146,8.75 39.096875,8.89583333 39.1046875,9.0625 C39.1125,9.22916667 39.1059896,9.40885417 39.0851563,9.6015625 L39.0851563,9.6015625 L38.1867188,15 L40.3976563,15 L41.2960938,9.6171875 C41.3377604,9.20052083 41.3338542,8.79947917 41.284375,8.4140625 C41.2348958,8.02864583 41.1242188,7.6875 40.9523438,7.390625 C40.7804688,7.09375 40.5395833,6.85546875 40.2296875,6.67578125 C39.9197917,6.49609375 39.5304688,6.40104167 39.0617188,6.390625 C38.5096354,6.38020833 38.0200521,6.49088542 37.5929688,6.72265625 C37.1658854,6.95442708 36.7804688,7.2734375 36.4367188,7.6796875 C36.3690104,7.45572917 36.26875,7.26432292 36.1359375,7.10546875 C36.003125,6.94661458 35.8481771,6.81380208 35.6710938,6.70703125 C35.4940104,6.60026042 35.3,6.52213542 35.0890625,6.47265625 C34.878125,6.42317708 34.6632813,6.39583333 34.4445313,6.390625 C33.9445313,6.38020833 33.4888021,6.47135417 33.0773438,6.6640625 C32.6658854,6.85677083 32.2960938,7.13541667 31.9679688,7.5 L31.9679688,7.5 L32.1476563,6.5390625 L30.0929688,6.546875 L28.6320313,15 L30.8351563,15 Z M43.7882813,18.25 L44.5617188,14.25 C44.8065104,14.5520833 45.0929688,14.7773437 45.4210938,14.9257812 C45.7492188,15.0742187 46.1085938,15.1536458 46.4992188,15.1640625 C46.9002604,15.1744792 47.2661458,15.1210937 47.596875,15.0039062 C47.9276042,14.8867187 48.2257813,14.7239583 48.4914063,14.515625 C48.7570313,14.3072917 48.9901042,14.0611979 49.190625,13.7773438 C49.3911458,13.4934896 49.5643229,13.1875 49.7101563,12.859375 C49.8559896,12.53125 49.9744792,12.1914062 50.065625,11.8398438 C50.1567708,11.4882812 50.2231771,11.140625 50.2648438,10.796875 L50.2648438,10.796875 L50.2804688,10.6328125 C50.3117188,10.3151042 50.3221354,9.99088542 50.3117188,9.66015625 C50.3013021,9.32942708 50.2635417,9.00911458 50.1984375,8.69921875 C50.1333333,8.38932292 50.0356771,8.09635417 49.9054688,7.8203125 C49.7752604,7.54427083 49.6072917,7.30078125 49.4015625,7.08984375 C49.1958333,6.87890625 48.9484375,6.71223958 48.659375,6.58984375 C48.3703125,6.46744792 48.0330729,6.40104167 47.6476563,6.390625 C47.2049479,6.38020833 46.8078125,6.46223958 46.45625,6.63671875 C46.1046875,6.81119792 45.7830729,7.0625 45.4914063,7.390625 L45.4914063,7.390625 L45.6398438,6.5390625 L43.6085938,6.546875 L41.5851563,18.25 L43.7882813,18.25 Z M46.0148438,13.3359375 C45.7179688,13.3255208 45.4627604,13.2565104 45.2492188,13.1289062 C45.0356771,13.0013021 44.8768229,12.796875 44.7726563,12.515625 L44.7726563,12.515625 L45.4054688,9.03125 C45.6033854,8.765625 45.83125,8.56119792 46.0890625,8.41796875 C46.346875,8.27473958 46.6476563,8.20833333 46.9914063,8.21875 C47.2986979,8.22916667 47.5330729,8.31901042 47.6945313,8.48828125 C47.8559896,8.65755208 47.9692708,8.86328125 48.034375,9.10546875 C48.0994792,9.34765625 48.128125,9.60677083 48.1203125,9.8828125 C48.1125,10.1588542 48.0981771,10.4088542 48.0773438,10.6328125 L48.0773438,10.6328125 L48.0539063,10.796875 C48.0174479,11.078125 47.9549479,11.3710938 47.8664063,11.6757812 C47.7778646,11.9804688 47.6541667,12.2578125 47.4953125,12.5078125 C47.3364583,12.7578125 47.1359375,12.9609375 46.89375,13.1171875 C46.6515625,13.2734375 46.3585938,13.3463542 46.0148438,13.3359375 Z M62.1632813,15 L62.4914063,13.1171875 L57.6632813,13.1171875 L59.3117188,3.625 L57.0226563,3.625 L55.0460938,15 L62.1632813,15 Z M67.0929688,15.15625 C67.7231771,15.171875 68.2973958,15.0677083 68.815625,14.84375 C69.3338542,14.6197917 69.7830729,14.3111979 70.1632813,13.9179687 C70.5434896,13.5247396 70.8520833,13.0638021 71.0890625,12.5351562 C71.3260417,12.0065104 71.4809896,11.4427083 71.5539063,10.84375 L71.5539063,10.84375 L71.5695313,10.671875 C71.6268229,10.109375 71.5994792,9.57291667 71.4875,9.0625 C71.3755208,8.55208333 71.1815104,8.10026042 70.9054688,7.70703125 C70.6294271,7.31380208 70.2700521,6.99869792 69.8273438,6.76171875 C69.3846354,6.52473958 68.8585938,6.40104167 68.2492188,6.390625 C67.6085938,6.375 67.0291667,6.48177083 66.5109375,6.7109375 C65.9927083,6.94010417 65.5447917,7.25390625 65.1671875,7.65234375 C64.7895833,8.05078125 64.4835938,8.51692708 64.2492188,9.05078125 C64.0148438,9.58463542 63.8638021,10.1510417 63.7960938,10.75 L63.7960938,10.75 L63.7804688,10.9140625 C63.7231771,11.4765625 63.7505208,12.0117188 63.8625,12.5195312 C63.9744792,13.0273438 64.1684896,13.4739583 64.4445313,13.859375 C64.7205729,14.2447917 65.0799479,14.5546875 65.5226563,14.7890625 C65.9653646,15.0234375 66.4888021,15.1458333 67.0929688,15.15625 Z M67.2101563,13.3515625 C66.8872396,13.3411458 66.6359375,13.2539062 66.45625,13.0898438 C66.2765625,12.9257812 66.1476563,12.7239583 66.0695313,12.484375 C65.9914063,12.2447917 65.9510417,11.9856771 65.9484375,11.7070312 C65.9458333,11.4283854 65.9575521,11.1640625 65.9835938,10.9140625 L65.9835938,10.9140625 L65.9992188,10.75 C66.0356771,10.4635417 66.1020833,10.1666667 66.1984375,9.859375 C66.2947917,9.55208333 66.4276042,9.27473958 66.596875,9.02734375 C66.7661458,8.77994792 66.9757813,8.57942708 67.2257813,8.42578125 C67.4757813,8.27213542 67.7752604,8.20052083 68.1242188,8.2109375 C68.3429688,8.22135417 68.5278646,8.265625 68.6789063,8.34375 C68.8299479,8.421875 68.9536458,8.52473958 69.05,8.65234375 C69.1463542,8.77994792 69.2205729,8.92708333 69.2726563,9.09375 C69.3247396,9.26041667 69.3598958,9.43359375 69.378125,9.61328125 C69.3963542,9.79296875 69.4028646,9.97526042 69.3976563,10.1601562 C69.3924479,10.3450521 69.3820313,10.5182292 69.3664063,10.6796875 L69.3664063,10.6796875 L69.3429688,10.84375 C69.3065104,11.1354167 69.2401042,11.4322917 69.14375,11.734375 C69.0473958,12.0364583 68.9132813,12.3085938 68.7414063,12.5507812 C68.5695313,12.7929688 68.3585938,12.9895833 68.1085938,13.140625 C67.8585938,13.2916667 67.5591146,13.3619792 67.2101563,13.3515625 Z M74.8664063,15.15625 C75.2934896,15.1666667 75.6854167,15.0898438 76.0421875,14.9257812 C76.3989583,14.7617188 76.7257813,14.53125 77.0226563,14.234375 C77.0174479,14.3697917 77.0200521,14.4986979 77.0304688,14.6210938 C77.0408854,14.7434896 77.0669271,14.8697917 77.1085938,15 L77.1085938,15 L79.2726563,15 L79.2804688,14.8515625 C79.2231771,14.7057292 79.1854167,14.5533854 79.1671875,14.3945312 C79.1489583,14.2356771 79.1424479,14.0755208 79.1476563,13.9140625 C79.1528646,13.7526042 79.1658854,13.5911458 79.1867188,13.4296875 C79.2075521,13.2682292 79.2309896,13.109375 79.2570313,12.953125 L79.2570313,12.953125 L79.8351563,9.3671875 C79.8820313,8.8984375 79.8377604,8.48177083 79.7023438,8.1171875 C79.5669271,7.75260417 79.3664063,7.44401042 79.1007813,7.19140625 C78.8351563,6.93880208 78.5135417,6.74479167 78.1359375,6.609375 C77.7583333,6.47395833 77.3481771,6.40104167 76.9054688,6.390625 C76.4888021,6.38541667 76.0643229,6.43359375 75.6320313,6.53515625 C75.1997396,6.63671875 74.8052083,6.79947917 74.4484375,7.0234375 C74.0916667,7.24739583 73.7960938,7.53125 73.5617188,7.875 C73.3273438,8.21875 73.1997396,8.625 73.1789063,9.09375 L73.1789063,9.09375 L75.3898438,9.0859375 C75.4575521,8.74739583 75.6111979,8.48828125 75.8507813,8.30859375 C76.0903646,8.12890625 76.3820313,8.04427083 76.7257813,8.0546875 C76.9184896,8.05989583 77.0786458,8.09765625 77.20625,8.16796875 C77.3338542,8.23828125 77.4328125,8.33072917 77.503125,8.4453125 C77.5734375,8.55989583 77.6164063,8.69401042 77.6320313,8.84765625 C77.6476563,9.00130208 77.6398438,9.1640625 77.6085938,9.3359375 L77.6085938,9.3359375 L77.4992188,9.84375 L76.4679688,9.828125 C76.1554688,9.828125 75.8377604,9.84765625 75.5148438,9.88671875 C75.1919271,9.92578125 74.8807292,9.98958333 74.58125,10.078125 C74.2817708,10.1666667 73.9992188,10.2825521 73.7335938,10.4257812 C73.4679688,10.5690104 73.2348958,10.7473958 73.034375,10.9609375 C72.8338542,11.1744792 72.6723958,11.4231771 72.55,11.7070312 C72.4276042,11.9908854 72.3585938,12.3177083 72.3429688,12.6875 C72.3273438,13.0520833 72.3846354,13.3854167 72.5148438,13.6875 C72.6450521,13.9895833 72.8260417,14.2486979 73.0578125,14.4648438 C73.2895833,14.6809896 73.5604167,14.8489583 73.8703125,14.96875 C74.1802083,15.0885417 74.5122396,15.1510417 74.8664063,15.15625 Z M75.4132813,13.4453125 C75.1372396,13.4401042 74.9197917,13.3554688 74.7609375,13.1914062 C74.6020833,13.0273438 74.5434896,12.8046875 74.5851563,12.5234375 C74.6164063,12.2734375 74.6971354,12.0625 74.8273438,11.890625 C74.9575521,11.71875 75.1151042,11.578125 75.3,11.46875 C75.4848958,11.359375 75.6893229,11.2799479 75.9132813,11.2304688 C76.1372396,11.1809896 76.3611979,11.1536458 76.5851563,11.1484375 L76.5851563,11.1484375 L77.3507813,11.15625 L77.0773438,12.6171875 C76.8690104,12.8671875 76.6229167,13.0703125 76.3390625,13.2265625 C76.0552083,13.3828125 75.7466146,13.4557292 75.4132813,13.4453125 Z M82.7960938,15 L83.8507813,9.03125 C84.0539063,8.78645833 84.2817708,8.58854167 84.534375,8.4375 C84.7869792,8.28645833 85.0773438,8.21614583 85.4054688,8.2265625 C85.6242188,8.23177083 85.8039063,8.26822917 85.9445313,8.3359375 C86.0851563,8.40364583 86.1919271,8.49739583 86.2648438,8.6171875 C86.3377604,8.73697917 86.3833333,8.88020833 86.4015625,9.046875 C86.4197917,9.21354167 86.4158854,9.3984375 86.3898438,9.6015625 L86.3898438,9.6015625 L85.4835938,15 L87.6867188,15 L88.5773438,9.625 C88.6190104,9.21354167 88.6164063,8.81510417 88.5695313,8.4296875 C88.5226563,8.04427083 88.4158854,7.70182292 88.2492188,7.40234375 C88.0825521,7.10286458 87.8494792,6.86197917 87.55,6.6796875 C87.2505208,6.49739583 86.8664063,6.40104167 86.3976563,6.390625 C85.8976563,6.38020833 85.4432292,6.47526042 85.034375,6.67578125 C84.6255208,6.87630208 84.2596354,7.1640625 83.9367188,7.5390625 L83.9367188,7.5390625 L84.1242188,6.5390625 L82.0617188,6.546875 L80.5929688,15 L82.7960938,15 Z" id="path-7"></path>
    </defs>
    <g id="新页面" stroke="none" stroke-width="1" fill="none" fill-rule="evenodd">
        <g id="冷启动页" transform="translate(-50.000000, -140.000000)">
            <g id="Group-29" transform="translate(50.000000, 141.000000)">
                <g id="银行卡" transform="translate(161.000000, 163.739956)">
                    <rect id="Rectangle" fill="#E3E2E3" x="3" y="7" width="8" height="1"></rect>
                    <rect id="Rectangle" fill="#E3E2E3" x="3" y="10" width="6" height="1"></rect>
                    <rect id="Rectangle" fill="#E3E2E3" x="13" y="7" width="4" height="1"></rect>
                    <path d="M2.5638852,0.5 L17.4361148,0.5 C18.1860349,0.5 18.4650013,0.560408843 18.7410463,0.708039303 C18.9785491,0.835057224 19.1649428,1.02145086 19.2919607,1.25895373 C19.4395912,1.53499868 19.5,1.81396507 19.5,2.5638852 L19.5,2.5638852 L19.5,12.4361148 C19.5,13.1860349 19.4395912,13.4650013 19.2919607,13.7410463 C19.1649428,13.9785491 18.9785491,14.1649428 18.7410463,14.2919607 C18.4650013,14.4395912 18.1860349,14.5 17.4361148,14.5 L17.4361148,14.5 L2.5638852,14.5 C1.81396507,14.5 1.53499868,14.4395912 1.25895373,14.2919607 C1.02145086,14.1649428 0.835057224,13.9785491 0.708039303,13.7410463 C0.560408843,13.4650013 0.5,13.1860349 0.5,12.4361148 L0.5,12.4361148 L0.5,2.5638852 C0.5,1.81396507 0.560408843,1.53499868 0.708039303,1.25895373 C0.835057224,1.02145086 1.02145086,0.835057224 1.25895373,0.708039303 C1.53499868,0.560408843 1.81396507,0.5 2.5638852,0.5 L2.5638852,0.5 Z" id="Rectangle" stroke="#E3E2E3"></path>
                    <rect id="Rectangle" fill="#E3E2E3" x="0" y="4" width="20" height="1"></rect>
                </g>
                <g id="银行卡-copy" transform="translate(42.000000, 113.739956)">
                    <rect id="Rectangle" fill="#E3E2E3" x="3" y="7" width="8" height="1"></rect>
                    <rect id="Rectangle" fill="#E3E2E3" x="3" y="10" width="6" height="1"></rect>
                    <rect id="Rectangle" fill="#E3E2E3" x="13" y="7" width="4" height="1"></rect>
                    <path d="M2.5638852,0.5 L17.4361148,0.5 C18.1860349,0.5 18.4650013,0.560408843 18.7410463,0.708039303 C18.9785491,0.835057224 19.1649428,1.02145086 19.2919607,1.25895373 C19.4395912,1.53499868 19.5,1.81396507 19.5,2.5638852 L19.5,2.5638852 L19.5,12.4361148 C19.5,13.1860349 19.4395912,13.4650013 19.2919607,13.7410463 C19.1649428,13.9785491 18.9785491,14.1649428 18.7410463,14.2919607 C18.4650013,14.4395912 18.1860349,14.5 17.4361148,14.5 L17.4361148,14.5 L2.5638852,14.5 C1.81396507,14.5 1.53499868,14.4395912 1.25895373,14.2919607 C1.02145086,14.1649428 0.835057224,13.9785491 0.708039303,13.7410463 C0.560408843,13.4650013 0.5,13.1860349 0.5,12.4361148 L0.5,12.4361148 L0.5,2.5638852 C0.5,1.81396507 0.560408843,1.53499868 0.708039303,1.25895373 C0.835057224,1.02145086 1.02145086,0.835057224 1.25895373,0.708039303 C1.53499868,0.560408843 1.81396507,0.5 2.5638852,0.5 L2.5638852,0.5 Z" id="Rectangle" stroke="#E3E2E3"></path>
                    <rect id="Rectangle" fill="#E3E2E3" x="0" y="4" width="20" height="1"></rect>
                </g>
                <g id="手机" transform="translate(211.000000, 65.739956)">
                    <circle id="Oval" fill="#E3E2E3" cx="8.5" cy="25" r="1"></circle>
                    <path d="M2.5638852,0.5 L14.4361148,0.5 C15.1860349,0.5 15.4650013,0.560408843 15.7410463,0.708039303 C15.9785491,0.835057224 16.1649428,1.02145086 16.2919607,1.25895373 C16.4395912,1.53499868 16.5,1.81396507 16.5,2.5638852 L16.5,2.5638852 L16.5,25.4361148 C16.5,26.1860349 16.4395912,26.4650013 16.2919607,26.7410463 C16.1649428,26.9785491 15.9785491,27.1649428 15.7410463,27.2919607 C15.4650013,27.4395912 15.1860349,27.5 14.4361148,27.5 L14.4361148,27.5 L2.5638852,27.5 C1.81396507,27.5 1.53499868,27.4395912 1.25895373,27.2919607 C1.02145086,27.1649428 0.835057224,26.9785491 0.708039303,26.7410463 C0.560408843,26.4650013 0.5,26.1860349 0.5,25.4361148 L0.5,25.4361148 L0.5,2.5638852 C0.5,1.81396507 0.560408843,1.53499868 0.708039303,1.25895373 C0.835057224,1.02145086 1.02145086,0.835057224 1.25895373,0.708039303 C1.53499868,0.560408843 1.81396507,0.5 2.5638852,0.5 L2.5638852,0.5 Z" id="Rectangle" stroke="#E3E2E3"></path>
                    <rect id="Rectangle" stroke="#E3E2E3" x="3" y="4.5" width="11" height="18" rx="1"></rect>
                    <line x1="7" y1="2.57707452" x2="10" y2="2.57707452" id="Path-84" stroke="#E3E2E3" stroke-linecap="round"></line>
                </g>
                <g id="手机-copy" transform="translate(34.000000, 51.739956)">
                    <circle id="Oval" fill="#E3E2E3" cx="8.5" cy="25" r="1"></circle>
                    <path d="M2.5638852,0.5 L14.4361148,0.5 C15.1860349,0.5 15.4650013,0.560408843 15.7410463,0.708039303 C15.9785491,0.835057224 16.1649428,1.02145086 16.2919607,1.25895373 C16.4395912,1.53499868 16.5,1.81396507 16.5,2.5638852 L16.5,2.5638852 L16.5,25.4361148 C16.5,26.1860349 16.4395912,26.4650013 16.2919607,26.7410463 C16.1649428,26.9785491 15.9785491,27.1649428 15.7410463,27.2919607 C15.4650013,27.4395912 15.1860349,27.5 14.4361148,27.5 L14.4361148,27.5 L2.5638852,27.5 C1.81396507,27.5 1.53499868,27.4395912 1.25895373,27.2919607 C1.02145086,27.1649428 0.835057224,26.9785491 0.708039303,26.7410463 C0.560408843,26.4650013 0.5,26.1860349 0.5,25.4361148 L0.5,25.4361148 L0.5,2.5638852 C0.5,1.81396507 0.560408843,1.53499868 0.708039303,1.25895373 C0.835057224,1.02145086 1.02145086,0.835057224 1.25895373,0.708039303 C1.53499868,0.560408843 1.81396507,0.5 2.5638852,0.5 L2.5638852,0.5 Z" id="Rectangle" stroke="#E3E2E3"></path>
                    <rect id="Rectangle" stroke="#E3E2E3" x="3" y="4.5" width="11" height="18" rx="1"></rect>
                    <line x1="7" y1="2.57707452" x2="10" y2="2.57707452" id="Path-84" stroke="#E3E2E3" stroke-linecap="round"></line>
                </g>
                <g id="钱包" transform="translate(202.000000, 115.000000)">
                    <path d="M17.4361148,5.23995553 C18.1860349,5.23995553 18.4650013,5.30036437 18.7410463,5.44799483 C18.9785491,5.57501276 19.1649428,5.76140639 19.2919607,5.99890926 C19.4395912,6.27495422 19.5,6.5539206 19.5,7.30384073 L19.5,7.30384073 L19.5,16.1760703 C19.5,16.9259905 19.4395912,17.2049568 19.2919607,17.4810018 C19.1649428,17.7185047 18.9785491,17.9048983 18.7410463,18.0319162 C18.4650013,18.1795467 18.1860349,18.2399555 17.4361148,18.2399555 L17.4361148,18.2399555 L2.5638852,18.2399555 C1.81396507,18.2399555 1.53499868,18.1795467 1.25895373,18.0319162 C1.02145086,17.9048983 0.835057224,17.7185047 0.708039303,17.4810018 C0.560408843,17.2049568 0.5,16.9259905 0.5,16.1760703 L0.5,16.1760703 L0.5,7.30384073 C0.5,6.5539206 0.560408843,6.27495422 0.708039303,5.99890926 C0.835057224,5.76140639 1.02145086,5.57501276 1.25895373,5.44799483 C1.53499868,5.30036437 1.81396507,5.23995553 2.5638852,5.23995553 L2.5638852,5.23995553 Z" id="Rectangle" stroke="#E3E2E3"></path>
                    <rect id="Rectangle" fill="#E3E2E3" x="3" y="9" width="9" height="1"></rect>
                    <rect id="Rectangle-Copy-7" fill="#E3E2E3" x="3" y="12" width="6" height="1"></rect>
                    <path d="M19.5,10.2399555 L19.5,14.2399555 L15.5,14.2399555 C14.9477153,14.2399555 14.4477153,14.0160979 14.0857864,13.6541691 C13.7238576,13.2922403 13.5,12.7922403 13.5,12.2399555 C13.5,11.6876708 13.7238576,11.1876708 14.0857864,10.825742 C14.4477153,10.4638132 14.9477153,10.2399555 15.5,10.2399555 L15.5,10.2399555 L19.5,10.2399555 Z" id="Rectangle" stroke="#E3E2E3"></path>
                    <path d="M15.7883397,12.9899555 C16.2025533,12.9899555 16.5383397,12.6541691 16.5383397,12.2399555 C16.5383397,11.825742 16.2025533,11.4899555 15.7883397,11.4899555 C15.3741262,11.4899555 15.0383397,11.825742 15.0383397,12.2399555 C15.0383397,12.6541691 15.3741262,12.9899555 15.7883397,12.9899555 Z" id="Oval" fill="#E3E2E3"></path>
                    <path d="M3.11514457,5.13687184 L10.9912643,0.429644631 C11.407216,0.181047705 11.9415501,0.266449724 12.2592934,0.632312316 L16.1714006,5.13687184 L16.1714006,5.13687184" id="Path-85" stroke="#E3E2E3" stroke-linecap="round" stroke-linejoin="round"></path>
                </g>
                <g id="钱包-copy-2" transform="translate(0.000000, 94.000000)">
                    <path d="M17.4361148,5.23995553 C18.1860349,5.23995553 18.4650013,5.30036437 18.7410463,5.44799483 C18.9785491,5.57501276 19.1649428,5.76140639 19.2919607,5.99890926 C19.4395912,6.27495422 19.5,6.5539206 19.5,7.30384073 L19.5,7.30384073 L19.5,16.1760703 C19.5,16.9259905 19.4395912,17.2049568 19.2919607,17.4810018 C19.1649428,17.7185047 18.9785491,17.9048983 18.7410463,18.0319162 C18.4650013,18.1795467 18.1860349,18.2399555 17.4361148,18.2399555 L17.4361148,18.2399555 L2.5638852,18.2399555 C1.81396507,18.2399555 1.53499868,18.1795467 1.25895373,18.0319162 C1.02145086,17.9048983 0.835057224,17.7185047 0.708039303,17.4810018 C0.560408843,17.2049568 0.5,16.9259905 0.5,16.1760703 L0.5,16.1760703 L0.5,7.30384073 C0.5,6.5539206 0.560408843,6.27495422 0.708039303,5.99890926 C0.835057224,5.76140639 1.02145086,5.57501276 1.25895373,5.44799483 C1.53499868,5.30036437 1.81396507,5.23995553 2.5638852,5.23995553 L2.5638852,5.23995553 Z" id="Rectangle" stroke="#E3E2E3"></path>
                    <rect id="Rectangle" fill="#E3E2E3" x="3" y="9" width="9" height="1"></rect>
                    <rect id="Rectangle-Copy-7" fill="#E3E2E3" x="3" y="12" width="6" height="1"></rect>
                    <path d="M19.5,10.2399555 L19.5,14.2399555 L15.5,14.2399555 C14.9477153,14.2399555 14.4477153,14.0160979 14.0857864,13.6541691 C13.7238576,13.2922403 13.5,12.7922403 13.5,12.2399555 C13.5,11.6876708 13.7238576,11.1876708 14.0857864,10.825742 C14.4477153,10.4638132 14.9477153,10.2399555 15.5,10.2399555 L15.5,10.2399555 L19.5,10.2399555 Z" id="Rectangle" stroke="#E3E2E3"></path>
                    <path d="M15.7883397,12.9899555 C16.2025533,12.9899555 16.5383397,12.6541691 16.5383397,12.2399555 C16.5383397,11.825742 16.2025533,11.4899555 15.7883397,11.4899555 C15.3741262,11.4899555 15.0383397,11.825742 15.0383397,12.2399555 C15.0383397,12.6541691 15.3741262,12.9899555 15.7883397,12.9899555 Z" id="Oval" fill="#E3E2E3"></path>
                    <path d="M3.11514457,5.13687184 L10.9912643,0.429644631 C11.407216,0.181047705 11.9415501,0.266449724 12.2592934,0.632312316 L16.1714006,5.13687184 L16.1714006,5.13687184" id="Path-85" stroke="#E3E2E3" stroke-linecap="round" stroke-linejoin="round"></path>
                </g>
                <g id="钱包-copy" transform="translate(92.000000, 0.000000)">
                    <path d="M17.4361148,5.23995553 C18.1860349,5.23995553 18.4650013,5.30036437 18.7410463,5.44799483 C18.9785491,5.57501276 19.1649428,5.76140639 19.2919607,5.99890926 C19.4395912,6.27495422 19.5,6.5539206 19.5,7.30384073 L19.5,7.30384073 L19.5,16.1760703 C19.5,16.9259905 19.4395912,17.2049568 19.2919607,17.4810018 C19.1649428,17.7185047 18.9785491,17.9048983 18.7410463,18.0319162 C18.4650013,18.1795467 18.1860349,18.2399555 17.4361148,18.2399555 L17.4361148,18.2399555 L2.5638852,18.2399555 C1.81396507,18.2399555 1.53499868,18.1795467 1.25895373,18.0319162 C1.02145086,17.9048983 0.835057224,17.7185047 0.708039303,17.4810018 C0.560408843,17.2049568 0.5,16.9259905 0.5,16.1760703 L0.5,16.1760703 L0.5,7.30384073 C0.5,6.5539206 0.560408843,6.27495422 0.708039303,5.99890926 C0.835057224,5.76140639 1.02145086,5.57501276 1.25895373,5.44799483 C1.53499868,5.30036437 1.81396507,5.23995553 2.5638852,5.23995553 L2.5638852,5.23995553 Z" id="Rectangle" stroke="#E3E2E3"></path>
                    <rect id="Rectangle" fill="#E3E2E3" x="3" y="9" width="9" height="1"></rect>
                    <rect id="Rectangle-Copy-7" fill="#E3E2E3" x="3" y="12" width="6" height="1"></rect>
                    <path d="M19.5,10.2399555 L19.5,14.2399555 L15.5,14.2399555 C14.9477153,14.2399555 14.4477153,14.0160979 14.0857864,13.6541691 C13.7238576,13.2922403 13.5,12.7922403 13.5,12.2399555 C13.5,11.6876708 13.7238576,11.1876708 14.0857864,10.825742 C14.4477153,10.4638132 14.9477153,10.2399555 15.5,10.2399555 L15.5,10.2399555 L19.5,10.2399555 Z" id="Rectangle" stroke="#E3E2E3"></path>
                    <path d="M15.7883397,12.9899555 C16.2025533,12.9899555 16.5383397,12.6541691 16.5383397,12.2399555 C16.5383397,11.825742 16.2025533,11.4899555 15.7883397,11.4899555 C15.3741262,11.4899555 15.0383397,11.825742 15.0383397,12.2399555 C15.0383397,12.6541691 15.3741262,12.9899555 15.7883397,12.9899555 Z" id="Oval" fill="#E3E2E3"></path>
                    <path d="M3.11514457,5.13687184 L10.9912643,0.429644631 C11.407216,0.181047705 11.9415501,0.266449724 12.2592934,0.632312316 L16.1714006,5.13687184 L16.1714006,5.13687184" id="Path-85" stroke="#E3E2E3" stroke-linecap="round" stroke-linejoin="round"></path>
                </g>
                <g id="钱币" transform="translate(260.000000, 109.739956) rotate(4.000000) translate(-260.000000, -109.739956) translate(249.000000, 98.739956)">
                    <circle id="Oval" stroke="#E3E2E3" cx="11" cy="11" r="10.5"></circle>
                    <circle id="Oval" stroke="#E3E2E3" cx="11" cy="11" r="7.5"></circle>
                    <text id="€" font-family="Roboto-Regular, Roboto" font-size="14" font-weight="normal" fill="#E3E2E3">
                        <tspan x="7.06933594" y="16">€</tspan>
                    </text>
                </g>
                <g id="钱币-copy-3" transform="translate(160.000000, 15.739956) rotate(14.000000) translate(-160.000000, -15.739956) translate(149.000000, 4.739956)">
                    <circle id="Oval" stroke="#E3E2E3" cx="11" cy="11" r="10.5"></circle>
                    <circle id="Oval" stroke="#E3E2E3" cx="11" cy="11" r="7.5"></circle>
                    <text id="€" font-family="Roboto-Regular, Roboto" font-size="14" font-weight="normal" fill="#E3E2E3">
                        <tspan x="7.06933594" y="16">€</tspan>
                    </text>
                </g>
                <g id="钱币-copy-2" transform="translate(109.000000, 171.739956) rotate(-13.000000) translate(-109.000000, -171.739956) translate(98.000000, 160.739956)">
                    <circle id="Oval" stroke="#E3E2E3" cx="11" cy="11" r="10.5"></circle>
                    <circle id="Oval" stroke="#E3E2E3" cx="11" cy="11" r="7.5"></circle>
                    <text id="€" font-family="Roboto-Regular, Roboto" font-size="14" font-weight="normal" fill="#E3E2E3">
                        <tspan x="7.06933594" y="16">€</tspan>
                    </text>
                </g>
                <path d="M219,27.7399555 C220.528653,29.0019414 221.959646,29.6329344 223.292979,29.6329344 C224.626312,29.6329344 225.861986,29.0019414 227,27.7399555 C225.679747,29.0867866 225.019621,30.4249352 225.019621,31.7544013 C225.019621,33.0838673 225.679747,34.4123854 227,35.7399555 C225.609502,34.4864977 224.247587,33.8597688 222.914253,33.8597688 C221.58092,33.8597688 220.276169,34.4864977 219,35.7399555 C220.414468,34.4494589 221.121703,33.1375439 221.121703,31.8042106 C221.121703,30.4708772 220.414468,29.1161256 219,27.7399555 Z" id="Rectangle" fill="#D8D8D8" transform="translate(223.000000, 31.739956) rotate(45.000000) translate(-223.000000, -31.739956) "></path>
                <path d="M56,11.7399555 C57.5286526,13.0019414 58.9596455,13.6329344 60.2929788,13.6329344 C61.6263122,13.6329344 62.8619859,13.0019414 64,11.7399555 C62.6797473,13.0867866 62.0196209,14.4249352 62.0196209,15.7544013 C62.0196209,17.0838673 62.6797473,18.4123854 64,19.7399555 C62.6095023,18.4864977 61.2475867,17.8597688 59.9142534,17.8597688 C58.5809201,17.8597688 57.2761689,18.4864977 56,19.7399555 C57.4144684,18.4494589 58.1217026,17.1375439 58.1217026,15.8042106 C58.1217026,14.4708772 57.4144684,13.1161256 56,11.7399555 Z" id="Rectangle-Copy-8" fill="#D8D8D8" transform="translate(60.000000, 15.739956) rotate(45.000000) translate(-60.000000, -15.739956) "></path>
                <path d="M67,162.739956 C68.5286526,164.001941 69.9596455,164.632934 71.2929788,164.632934 C72.6263122,164.632934 73.8619859,164.001941 75,162.739956 C73.6797473,164.086787 73.0196209,165.424935 73.0196209,166.754401 C73.0196209,168.083867 73.6797473,169.412385 75,170.739956 C73.6095023,169.486498 72.2475867,168.859769 70.9142534,168.859769 C69.5809201,168.859769 68.2761689,169.486498 67,170.739956 C68.4144684,169.449459 69.1217026,168.137544 69.1217026,166.804211 C69.1217026,165.470877 68.4144684,164.116126 67,162.739956 Z" id="Rectangle-Copy-10" fill="#D8D8D8" transform="translate(71.000000, 166.739956) rotate(45.000000) translate(-71.000000, -166.739956) "></path>
                <g id="Group-5-Copy" transform="translate(82.000000, 39.000000)">
                    <g id="Group-7">
                        <mask id="mask-2" fill="white">
                            <use xlink:href="#path-1"></use>
                        </mask>
                        <use id="Rectangle" fill="#438CFF" fill-rule="nonzero" xlink:href="#path-1"></use>
                        <g id="Group-6" mask="url(#mask-2)" fill="#1D7AFF">
                            <g transform="translate(24.569348, 75.000000) scale(-1, -1) translate(-24.569348, -75.000000) translate(-1.000000, 50.000000)">
                                <polygon id="Path-4" points="13.8411157 0 4.54747351e-13 50 30.9601626 0"></polygon>
                                <polygon id="Path-6" points="50 7.51163567 0 50 51.1386965 30.4189353"></polygon>
                            </g>
                        </g>
                        <g id="Group-6" mask="url(#mask-2)" fill="#1D7AFF">
                            <g transform="translate(50.000000, 0.000000)">
                                <polygon id="Path-4" points="13.8411157 0 4.54747351e-13 50 30.9601626 0"></polygon>
                                <polygon id="Path-6" points="50 7.51163567 0 50 51.1386965 30.4189353"></polygon>
                            </g>
                        </g>
                        <g id="Group-6" mask="url(#mask-2)" fill="#1D7AFF">
                            <g transform="translate(78.558049, 75.000000) scale(1, -1) translate(-78.558049, -75.000000) translate(49.980474, 50.000000)">
                                <polygon id="Path-3" points="0 0 0.019525802 50 13.8606415 0"></polygon>
                                <polygon id="Path-5" points="0.019525802 50 30.9796884 0 57.15515 1.47970405"></polygon>
                                <polygon id="Path-7" points="0.019525802 50 50.0195258 30.8333799 50.0195258 50"></polygon>
                            </g>
                        </g>
                        <g id="Group-6" mask="url(#mask-2)" fill="#1D7AFF">
                            <g transform="translate(21.558049, 25.000000) scale(-1, 1) translate(-21.558049, -25.000000) translate(-7.019526, 0.000000)">
                                <polygon id="Path-3" points="0 0 0.019525802 50 13.8606415 0"></polygon>
                                <polygon id="Path-5" points="0.019525802 50 30.9796884 0 57.15515 1.47970405"></polygon>
                                <polygon id="Path-7" points="0.019525802 50 50.0195258 30.8333799 50.0195258 50"></polygon>
                            </g>
                        </g>
                    </g>
                    <g id="Group-44" transform="translate(20.000000, 3.000000)">
                        <path d="M10.4209154,10.7333352 C16.9505073,8.23847598 23.4800992,6.99104638 30.009691,6.99104638 C36.5418993,6.99104638 43.0741076,8.23947589 49.6063159,10.7363349 L49.6063151,10.736337 C49.982322,10.8800612 50.2354959,11.2352265 50.2487292,11.6375481 C50.5562473,20.9867895 49.8739615,27.2583717 48.2018717,30.4522949 C44.4848105,37.5523966 37.2386066,41.0330173 30.009691,41.5339367 C23.943419,41.954292 16.1347984,37.7099286 12.385405,31.4032229 C10.4362257,28.1245857 9.56710859,21.5388884 9.77805369,11.6461309 L9.77807642,11.6461314 C9.78674846,11.2394359 10.0409205,10.8785256 10.4209154,10.7333352 Z" id="Path-86" fill="#FFD456"></path>
                        <path d="M11.1224172,12.3053372 C16.9753176,9.64819179 23.2710755,8.31961908 30.009691,8.31961908 C36.7483065,8.31961908 43.0761938,9.50442211 48.993353,11.8740282 L48.993353,13.538 L47.019837,13.1628424 C46.5074126,22.7520183 45.7258627,28.5500738 44.6751874,30.5570092 C40.9581262,37.657111 37.2386066,41.0330173 30.009691,41.5339367 C23.943419,41.954292 17.4633711,37.7099286 13.7139777,31.4032229 C11.721163,28.0511883 10.8573095,21.6852264 11.1224172,12.3053372 Z" id="Path-86" fill="#FDBD0F"></path>
                        <path d="M32.1796875,27.1953125 C32.9661458,27.1953125 33.6848958,27.0442708 34.3359375,26.7421875 L34.3359375,26.7421875 L34.3359375,25.1328125 C33.7890625,25.6432292 33.0286458,25.8984375 32.0546875,25.8984375 C31.3567708,25.8984375 30.7083333,25.71875 30.109375,25.359375 C29.2760417,24.859375 28.75,24.0130208 28.53125,22.8203125 L28.53125,22.8203125 L33.1796875,22.8203125 L33.3984375,21.7734375 L28.3671875,21.7734375 C28.3632812,21.7148438 28.3608398,21.5654297 28.3598633,21.3251953 L28.359375,21.0546875 C28.359375,20.9557292 28.3619792,20.8515625 28.3671875,20.7421875 L28.3671875,20.7421875 L33.609375,20.7421875 L33.8203125,19.6953125 L28.4921875,19.6953125 C28.5442708,19.2682292 28.7161458,18.8177083 29.0078125,18.34375 C29.2942708,17.8854167 29.6145833,17.53125 29.96875,17.28125 C30.5625,16.859375 31.296875,16.6484375 32.171875,16.6484375 C32.9791667,16.6484375 33.7005208,16.9114583 34.3359375,17.4375 L34.3359375,17.4375 L34.6484375,15.984375 C33.9869792,15.5625 33.171875,15.3515625 32.203125,15.3515625 C31.1927083,15.3515625 30.2682292,15.5807292 29.4296875,16.0390625 C28.0703125,16.7786458 27.2291667,17.9973958 26.90625,19.6953125 L26.90625,19.6953125 L26,19.6953125 L25.78125,20.7421875 L26.8046875,20.7421875 C26.7994792,20.8515625 26.796875,20.9583333 26.796875,21.0625 C26.796875,21.3177083 26.8046875,21.5546875 26.8203125,21.7734375 L26.8203125,21.7734375 L26,21.7734375 L25.78125,22.8203125 L26.9765625,22.8203125 C27.0963542,23.3828125 27.2395833,23.8619792 27.40625,24.2578125 C28.234375,26.2161458 29.8255208,27.1953125 32.1796875,27.1953125 Z" id="€" fill="#FFFFFF" fill-rule="nonzero"></path>
                        <polygon id="Rectangle" fill="#FFC016" points="27.0297946 40.8304791 27.9509431 40.8304791 32.8755144 40.8304791 32.8755144 45.8304791 27.0297946 45.8304791"></polygon>
                        <path d="M17.4280879,53.1271177 L14.2148488,55.0600904 L14.2148488,63.3635984 C11.6734403,64.5431247 10.6977671,65.6012968 11.2878293,66.5381147 C14.103581,71.0085703 23.54667,71.2213518 30.0056874,71.2213518 C35.8912688,71.2213518 45.9630805,70.036064 48.430556,67.0567732 C49.3209056,65.9817432 48.395323,64.5728563 45.6538082,62.8301128 L45.6538082,55.3447424 L42.2574668,52.9079821 L17.4280879,53.1271177 Z" id="Path-88" fill="#4E4F48"></path>
                        <g id="Path-87">
                            <use fill="#FFC016" fill-rule="evenodd" xlink:href="#path-3"></use>
                            <use fill="black" fill-opacity="1" filter="url(#filter-4)" xlink:href="#path-3"></use>
                        </g>
                        <path d="M9.80698513,18.0199078 L1.05967669,18.0199078 C0.507395206,18.0199138 0.0596826029,18.4676264 0.0596826029,19.0199078 C0.0596826029,19.0439509 0.060549711,19.0679861 0.0622822366,19.0919667 C0.44222707,24.35093 1.8562766,28.2271681 4.30443084,30.7206811 C8.25673242,34.7462099 12.5303369,36.7589743 17.1252442,36.7589743 L14.1346707,33.7136317 C11.0805397,32.524655 8.63623921,30.9715239 6.80176932,29.0542385 C4.81614471,26.9789747 3.54317441,24.1777907 2.98285841,20.6506867 L9.96378571,20.6506867 L9.80698513,18.0199078 Z" id="Path-89" fill="#FEBF0C"></path>
                        <path d="M52.705211,17.9981677 L44.045285,17.9981677 C43.4929952,17.9981586 43.0452759,18.4458779 43.0452759,18.9981677 C43.0452759,19.0174183 43.0458318,19.0366648 43.0469428,19.0558833 C43.3513926,24.3221424 44.7288072,28.2031616 47.1791866,30.698941 C51.1314882,34.7244698 55.4050927,36.7372342 60,36.7372342 L57.0094265,33.6918916 C53.9552954,32.5029149 51.510995,30.9497838 49.6765251,29.0324984 C47.6909005,26.9572346 46.4179302,24.1560506 45.8576142,20.6289466 L52.818987,20.6289466 L52.705211,17.9981677 Z" id="Path-89" fill="#FEBF0C" transform="translate(51.500388, 27.367701) scale(-1, 1) translate(-51.500388, -27.367701) "></path>
                        <path d="M57.2038877,35.5143265 C56.7949008,37.6151152 56.3279294,39.1256291 55.8029736,40.0458681 C55.2780177,40.966107 54.4116558,41.6083423 53.2038877,41.9725737 C54.4138354,42.2639996 55.2801974,42.8382462 55.8029736,43.6953137 C56.3257497,44.5523811 56.7404765,46.0784202 57.0471537,48.2734309 C57.3907176,46.1212623 57.8593389,44.5952232 58.4530176,43.6953137 C59.0466963,42.7954041 59.963653,42.2211574 61.2038877,41.9725737 C59.9073759,41.4936478 58.9904192,40.8868115 58.4530176,40.152065 C57.9156161,39.4173184 57.4992395,37.8714056 57.2038877,35.5143265 Z" id="Path-90" fill="#FFFFFF"></path>
                        <path d="M10.8068565,0 C10.5504204,1.49488235 10.2576278,2.53081995 9.92847879,3.10781279 C9.59932977,3.68480562 9.05856455,4.07973392 8.30618311,4.29259769 C9.05993119,4.3131522 9.60069642,4.59212149 9.92847879,5.12950556 C10.2562612,5.66688962 10.5162962,6.6237211 10.7085838,8 C10.9239995,6.65058327 11.2178266,5.69375179 11.5900651,5.12950556 C11.9623035,4.56525932 12.5372384,4.20520481 13.3148695,4.04934202 C12.5019524,3.95981112 11.9270176,3.68470143 11.5900651,3.22401294 C11.2531126,2.76332446 10.992043,1.68865348 10.8068565,0 Z" id="Path-90-Copy" fill="#FFFFFF"></path>
                        <path d="M5.70030374,41.3409308 C5.2907175,43.7285945 4.82306184,45.3832201 4.29733674,46.3048076 C3.77161165,47.2263951 2.90788782,47.8571845 1.70616525,48.1971759 C2.91007066,48.2300061 3.77379449,48.6755828 4.29733674,49.5339062 C4.820879,50.3922295 5.23621345,51.9205048 5.54334011,54.1187321 C5.88740747,51.9634098 6.35671548,50.4351345 6.95126415,49.5339062 C7.54581281,48.6326779 8.46411318,48.0575898 9.70616525,47.8086418 C8.40775354,47.6656408 7.48945317,47.2262287 6.95126415,46.4904054 C6.41307512,45.7545822 5.99608832,44.0380906 5.70030374,41.3409308 Z" id="Path-90-Copy-2" fill="#FFFFFF"></path>
                        <path d="M16.8718943,13.3081266 L22.7381249,11.7632381 C22.6748704,19.5765701 23.0155533,25.0858281 23.7601736,28.291012 C24.5047939,31.4961958 26.5962494,35.181954 30.03454,39.3482866 C33.499751,35.6611665 35.6239814,32.0833496 36.4072314,28.6148359 C37.1904813,25.1463222 37.579432,19.4934389 37.5740834,11.656186 L44.6345411,12.8207371 C44.8153292,21.1611805 44.3835175,26.7945504 43.339106,29.7208465 C40.6813488,37.1675133 34.3278719,40.1803296 30.0297946,40.1803296 C24.6519714,40.1803296 19.7379666,35.8392203 17.6356474,26.3562559 C17.109807,23.9843391 16.8552226,19.6349627 16.8718943,13.3081266 Z" id="Path-104" fill="#FDE4A0"></path>
                        <path d="M16.8711258,13.3081266 L19.2383848,12.7093989 C19.1032427,20.8834059 19.4998105,26.5206652 20.4280879,29.6211768 C21.3563654,32.7216885 23.455844,36.0528452 26.7265239,39.614647 C21.7808023,37.4765485 18.8645161,33.6790054 17.9776655,28.2220176 C17.0908148,22.7650298 16.7219682,17.7937328 16.8711258,13.3081266 Z" id="Path-106" fill="#FFFFFF"></path>
                        <path d="M44.6345411,12.8207371 L42.1686944,12.3780372 C42.4250735,19.2851253 42.2358642,24.2816798 41.6010663,27.367701 C40.9662685,30.4537221 39.3913589,33.9978618 36.8763375,38.0001201 C40.3588613,35.7911142 42.5914376,33.0616928 43.5740664,29.8118559 C44.5566951,26.562019 44.9101867,20.8983127 44.6345411,12.8207371 Z" id="Path-107" fill="#FFD456"></path>
                        <path d="M19.2940243,13.8207371 L20.3075288,14.0980494 C20.1977605,21.1908025 19.8599257,25.9545997 19.2940243,28.3894411 C18.1624553,33.2581181 16.0601972,36.3753466 12.9872501,37.7411266 C15.2068373,36.3753466 16.8889748,34.1105055 18.0336625,30.9466035 C19.1783503,27.7827015 19.5984708,22.0740794 19.2940243,13.8207371 Z" id="Path-108" fill="#FDE4A0" transform="translate(16.647389, 25.780932) scale(-1, 1) translate(-16.647389, -25.780932) "></path>
                        <path d="M45.6397938,55.4340276 C43.7269705,57.4777686 40.292727,58.6513379 35.3370633,58.9547353 C30.3813997,59.2581327 24.9058416,59.106434 18.9103889,58.4996391 C22.0361138,61.136541 25.5414499,62.8147917 29.4263972,63.5343912 C33.3113445,64.2539906 37.2419272,64.6503543 41.2181453,64.7234823 C36.2262363,65.8573163 31.0957323,66.2851093 25.8266334,66.0068614 C20.5575344,65.7286136 16.7773588,64.77622 14.4861065,63.1496808 L13.8711258,63.5343912 C16.2594661,65.6376116 21.1270711,66.7401888 28.4739407,66.8421228 C35.8208103,66.9440568 41.9104189,65.9253274 46.7427664,63.7859344 L45.6397938,62.8234402 L45.6397938,55.4340276 Z" id="Path-109" fill="#6A6B64" transform="translate(30.306946, 61.141552) scale(-1, 1) translate(-30.306946, -61.141552) "></path>
                        <path d="M33.1419416,47.5254482 L26.2175999,47.7455126 C25.4795749,47.9050649 24.6145346,48.3199849 23.622479,48.9902724 C22.9737087,49.4286176 22.3261289,50.2408476 21.3971464,51.0486713 C21.0694435,51.3336349 20.3324858,51.8403275 19.1862733,52.5687489 C23.6202543,53.2683827 27.0882643,53.6181997 29.5903031,53.6181997 C32.0923419,53.6181997 35.814054,53.3814605 40.7554393,52.9079821 C40.7324919,52.4700194 40.6218247,52.170251 40.423438,52.0086768 C39.7273609,51.4417637 38.5503268,51.1051122 38.2074986,50.795181 C37.6514101,50.2924533 37.4247257,49.6684191 36.8763375,49.2807237 C35.6040285,48.3812362 34.3592299,47.7961444 33.1419416,47.5254482 Z" id="Path-2" fill="#FFD456" filter="url(#filter-5)"></path>
                    </g>
                    <g id="Group-45" transform="translate(5.022598, 72.000000)" fill-rule="nonzero">
                        <path d="M5.03455851,16.1679688 C5.69523559,16.1791667 6.3251184,16.0909831 6.92420695,15.903418 C7.52329549,15.7158529 8.05799601,15.4401042 8.52830851,15.0761719 C8.99862101,14.7122396 9.38914835,14.2643229 9.69989054,13.7324219 C10.0106327,13.2005208 10.2051965,12.5958333 10.2835819,11.9183594 L10.2835819,11.9183594 L7.83963663,11.9351562 C7.69406372,12.6518229 7.39591918,13.2019206 6.94520304,13.5854492 C6.49448689,13.9689779 5.89399861,14.1467448 5.1437382,14.11875 C4.80220174,14.1075521 4.52085408,14.0389648 4.29969523,13.9129883 C4.07853637,13.7870117 3.90076945,13.6246419 3.76639445,13.4258789 C3.63201945,13.2271159 3.53683715,12.9989583 3.48084757,12.7414063 C3.42485799,12.4838542 3.39126424,12.2165039 3.38006632,11.9393555 C3.3688684,11.662207 3.37446736,11.3822591 3.3968632,11.0995117 C3.41925903,10.8167643 3.44725382,10.5522135 3.48084757,10.3058594 L3.48084757,10.3058594 L3.59002726,9.47441406 C3.62921997,9.17766927 3.68660929,8.87392578 3.76219523,8.56318359 C3.83778116,8.25244141 3.93296346,7.95429688 4.0477421,7.66875 C4.16252075,7.38320312 4.30249471,7.11585286 4.46766398,6.86669922 C4.63283325,6.61754557 4.82599731,6.40198568 5.04715616,6.22001953 C5.26831502,6.03805339 5.52166788,5.89667969 5.80721476,5.79589844 C6.09276163,5.69511719 6.41470174,5.65032552 6.77303507,5.66152344 C7.13696736,5.67272135 7.44071085,5.7343099 7.68426554,5.84628906 C7.92782023,5.95826823 8.12238403,6.11223958 8.26795695,6.30820313 C8.41352986,6.50416667 8.51711059,6.73932292 8.57869913,7.01367188 C8.64028767,7.28802083 8.67108195,7.59316406 8.67108195,7.92910156 L8.67108195,7.92910156 L11.1234257,7.9375 C11.0898319,7.29921875 10.9750533,6.71552734 10.7790898,6.18642578 C10.5831262,5.65732422 10.3073775,5.20380859 9.95184366,4.82587891 C9.59630981,4.44794922 9.16379028,4.15260417 8.65428507,3.93984375 C8.14477986,3.72708333 7.55688924,3.61510417 6.8906132,3.60390625 C6.3251184,3.59270833 5.79881632,3.65849609 5.31170695,3.80126953 C4.82459757,3.94404297 4.37808064,4.14840495 3.97215616,4.41435547 C3.56623168,4.68030599 3.20229939,4.99804688 2.88035929,5.36757812 C2.55841918,5.73710937 2.27567179,6.14163411 2.0321171,6.58115234 C1.78856241,7.02067057 1.58839965,7.48818359 1.43162882,7.98369141 C1.27485799,8.47919922 1.16007934,8.98170573 1.08729288,9.49121094 L1.08729288,9.49121094 L0.978113195,10.2974609 C0.916524654,10.7789714 0.898328039,11.2576823 0.923523352,11.7335938 C0.948718664,12.2095052 1.02010538,12.6630208 1.13768351,13.0941406 C1.25526163,13.5252604 1.42183064,13.9255859 1.63739054,14.2951172 C1.85295043,14.6646484 2.1203007,14.9865885 2.43944132,15.2609375 C2.75858195,15.5352865 3.13371215,15.7522461 3.56483195,15.9118164 C3.99595174,16.0713867 4.48586059,16.1567708 5.03455851,16.1679688 Z M12.9814554,16 L14.1236429,9.53320312 C14.3476012,9.27005208 14.5953551,9.06429036 14.8669046,8.91591797 C15.1384541,8.76754557 15.450596,8.69895833 15.8033304,8.71015625 C16.0440856,8.71575521 16.2386494,8.75914714 16.3870218,8.84033203 C16.5353942,8.92151693 16.6473734,9.02929688 16.7229593,9.16367188 C16.7985452,9.29804688 16.8447367,9.45761719 16.8615335,9.64238281 C16.8783304,9.82714844 16.8727314,10.0287109 16.8447367,10.2470703 L16.8447367,10.2470703 L15.8789163,16 L18.2472757,16 L19.2046976,10.2722656 C19.2494893,9.81875 19.2424906,9.38203125 19.1837015,8.96210938 C19.1249124,8.5421875 19.0003356,8.16845703 18.809971,7.84091797 C18.6196064,7.51337891 18.3550557,7.2516276 18.0163187,7.05566406 C17.6775817,6.85970052 17.2534606,6.75611979 16.7439554,6.74492188 C16.2456481,6.73932292 15.7921325,6.84290365 15.3834085,7.05566406 C14.9746846,7.26842448 14.6079528,7.55677083 14.2832132,7.92070313 L14.2832132,7.92070313 L15.2238382,3.1 L12.8470804,3.1 L10.613096,16 L12.9814554,16 Z M22.4064773,16.1679688 C22.8655919,16.1791667 23.2869135,16.096582 23.6704421,15.9202148 C24.0539708,15.7438477 24.4053054,15.4960938 24.724446,15.1769531 C24.7188471,15.322526 24.7216466,15.4611003 24.7328445,15.5926758 C24.7440424,15.7242513 24.7720372,15.860026 24.8168289,16 L24.8168289,16 L27.143196,16 L27.1515945,15.8404297 C27.0900059,15.6836589 27.0494135,15.5198893 27.0298171,15.3491211 C27.0102208,15.1783529 27.0032221,15.0061849 27.008821,14.8326172 C27.01442,14.6590495 27.0284174,14.4854818 27.0508132,14.3119141 C27.0732091,14.1383464 27.0984044,13.9675781 27.1263992,13.7996094 L27.1263992,13.7996094 L27.7478835,9.94472656 C27.7982742,9.44082031 27.750683,8.99290365 27.6051101,8.60097656 C27.4595372,8.20904948 27.2439773,7.8773112 26.9584304,7.60576172 C26.6728835,7.33421224 26.3271479,7.12565104 25.9212234,6.98007812 C25.5152989,6.83450521 25.0743809,6.75611979 24.5984695,6.74492188 C24.1505528,6.73932292 23.6942377,6.79111328 23.2295242,6.90029297 C22.7648106,7.00947266 22.3406895,7.1844401 21.9571609,7.42519531 C21.5736322,7.66595052 21.2558914,7.97109375 21.0039382,8.340625 C20.7519851,8.71015625 20.6148106,9.146875 20.5924148,9.65078125 L20.5924148,9.65078125 L22.9691726,9.64238281 C23.0419591,9.27845052 23.2071283,8.99990234 23.4646804,8.80673828 C23.7222325,8.61357422 24.0357742,8.52259115 24.4053054,8.53378906 C24.6124669,8.53938802 24.7846348,8.57998047 24.9218093,8.65556641 C25.0589838,8.73115234 25.165364,8.83053385 25.2409499,8.95371094 C25.3165359,9.07688802 25.3627273,9.2210612 25.3795242,9.38623047 C25.396321,9.55139974 25.3879226,9.72636719 25.3543289,9.91113281 L25.3543289,9.91113281 L25.2367507,10.4570312 L24.128157,10.4402344 C23.7922195,10.4402344 23.450683,10.4612305 23.1035476,10.5032227 C22.7564122,10.5452148 22.4218744,10.6138021 22.0999343,10.7089844 C21.7779942,10.8041667 21.4742507,10.9287435 21.1887039,11.0827148 C20.903157,11.2366862 20.6526036,11.4284505 20.4370437,11.6580078 C20.2214838,11.8875651 20.0479161,12.1549154 19.9163406,12.4600586 C19.7847651,12.7652018 19.7105789,13.1165365 19.693782,13.5140625 C19.6769851,13.9059896 19.7385736,14.2643229 19.8785476,14.5890625 C20.0185216,14.9138021 20.2130854,15.1923503 20.462239,15.424707 C20.7113927,15.6570638 21.0025385,15.8376302 21.3356765,15.9664062 C21.6688145,16.0951823 22.0257481,16.1623698 22.4064773,16.1679688 Z M22.9943679,14.3287109 C22.6976231,14.323112 22.4638666,14.2321289 22.2930984,14.0557617 C22.1223302,13.8793945 22.0593419,13.6400391 22.1041335,13.3376953 C22.1377273,13.0689453 22.2245111,12.8421875 22.3644851,12.6574219 C22.5044591,12.4726562 22.6738276,12.3214844 22.8725906,12.2039062 C23.0713536,12.0863281 23.2911127,12.000944 23.5318679,11.9477539 C23.7726231,11.8945638 24.0133783,11.8651693 24.2541335,11.8595703 L24.2541335,11.8595703 L25.0771804,11.8679687 L24.7832351,13.4384766 C24.5592768,13.7072266 24.294726,13.9255859 23.9895828,14.0935547 C23.6844395,14.2615234 23.3527013,14.3399089 22.9943679,14.3287109 Z M30.4709523,16 L31.6047414,9.56679688 C31.8175018,9.30924479 32.0540578,9.10068359 32.3144093,8.94111328 C32.5747609,8.78154297 32.8785044,8.70735677 33.2256398,8.71855469 C33.4607961,8.72415365 33.6483612,8.76614583 33.7883351,8.84453125 C33.9283091,8.92291667 34.0332895,9.02929688 34.1032765,9.16367188 C34.1732635,9.29804687 34.2124562,9.45481771 34.2208547,9.63398438 C34.2292531,9.81315104 34.2222544,10.0063151 34.1998586,10.2134766 L34.1998586,10.2134766 L33.2340382,16 L35.6023976,16 L36.6606007,9.94472656 L36.6857961,9.7515625 C36.7865773,9.60039063 36.8943573,9.46041667 37.0091359,9.33164063 C37.1239145,9.20286458 37.2498911,9.09228516 37.3870656,8.99990234 C37.5242401,8.90751953 37.6726125,8.83613281 37.8321828,8.78574219 C37.9917531,8.73535156 38.1667205,8.71015625 38.3570851,8.71015625 C38.5922414,8.71575521 38.7798065,8.75634766 38.9197804,8.83193359 C39.0597544,8.90751953 39.1661346,9.0125 39.2389211,9.146875 C39.3117075,9.28125 39.3523,9.43802083 39.3606984,9.6171875 C39.3690968,9.79635417 39.3620981,9.98951823 39.3397023,10.1966797 L39.3397023,10.1966797 L38.373882,16 L40.7506398,16 L41.7164601,10.2134766 C41.7612518,9.7655599 41.7570526,9.3344401 41.7038625,8.92011719 C41.6506724,8.50579427 41.5316945,8.1390625 41.3469289,7.81992188 C41.1621632,7.50078125 40.9032114,7.24462891 40.5700734,7.05146484 C40.2369354,6.85830078 39.8184132,6.75611979 39.314507,6.74492188 C38.7210174,6.73372396 38.1947153,6.85270182 37.7356007,7.10185547 C37.2764862,7.35100911 36.8621632,7.69394531 36.492632,8.13066406 C36.4198455,7.88990885 36.3120656,7.68414714 36.1692922,7.51337891 C36.0265187,7.34261068 35.8599497,7.19983724 35.6695851,7.08505859 C35.4792205,6.97027995 35.2706593,6.88629557 35.0439015,6.83310547 C34.8171437,6.77991536 34.5861867,6.75052083 34.3510304,6.74492188 C33.8135304,6.73372396 33.3236216,6.83170573 32.8813039,7.03886719 C32.4389862,7.24602865 32.0414601,7.54557292 31.6887257,7.9375 L31.6887257,7.9375 L31.8818898,6.90449219 L29.6731007,6.91289063 L28.1025929,16 L30.4709523,16 Z M43.885232,19.49375 L44.7166773,15.19375 C44.9798284,15.5184896 45.2877711,15.7606445 45.6405055,15.9202148 C45.9932398,16.0797852 46.379568,16.1651693 46.7994898,16.1763672 C47.2306096,16.1875651 47.6239364,16.1301758 47.9794703,16.0041992 C48.3350041,15.8782227 48.6555445,15.7032552 48.9410914,15.4792969 C49.2266383,15.2553385 49.4771916,14.9907878 49.6927515,14.6856445 C49.9083114,14.3805013 50.0944768,14.0515625 50.2512476,13.6988281 C50.4080185,13.3460937 50.5353948,12.9807617 50.6333765,12.602832 C50.7313583,12.2249023 50.802745,11.8511719 50.8475367,11.4816406 L50.8475367,11.4816406 L50.8643336,11.3052734 C50.8979273,10.963737 50.9091252,10.6152018 50.8979273,10.259668 C50.8867294,9.90413411 50.846137,9.55979818 50.77615,9.22666016 C50.706163,8.89352214 50.6011825,8.57858073 50.4612086,8.28183594 C50.3212346,7.98509115 50.1406682,7.72333984 49.9195094,7.49658203 C49.6983505,7.26982422 49.4324,7.09065755 49.1216578,6.95908203 C48.8109156,6.82750651 48.4483831,6.75611979 48.0340601,6.74492188 C47.5581487,6.73372396 47.1312281,6.82190755 46.7532984,7.00947266 C46.3753687,7.19703776 46.0296331,7.4671875 45.7160914,7.81992188 L45.7160914,7.81992188 L45.8756617,6.90449219 L43.692068,6.91289063 L41.5168726,19.49375 L43.885232,19.49375 Z M46.2787867,14.2111328 C45.9596461,14.1999349 45.6852971,14.1257487 45.4557398,13.9885742 C45.2261825,13.8513997 45.0554143,13.6316406 44.9434351,13.3292969 L44.9434351,13.3292969 L45.6237086,9.58359375 C45.836469,9.29804687 46.0814234,9.07828776 46.3585719,8.92431641 C46.6357203,8.77034505 46.9590601,8.69895833 47.3285914,8.71015625 C47.6589299,8.72135417 47.9108831,8.8179362 48.0844508,8.99990234 C48.2580185,9.18186849 48.3797958,9.40302734 48.4497828,9.66337891 C48.5197698,9.92373047 48.550564,10.2022786 48.5421656,10.4990234 C48.5337672,10.7957682 48.51837,11.0645182 48.4959742,11.3052734 L48.4959742,11.3052734 L48.4707789,11.4816406 C48.4315862,11.7839844 48.3643987,12.0989258 48.2692164,12.4264648 C48.1740341,12.7540039 48.0410588,13.0521484 47.8702906,13.3208984 C47.6995224,13.5896484 47.4839625,13.8080078 47.2236109,13.9759766 C46.9632594,14.1439453 46.648318,14.2223307 46.2787867,14.2111328 Z M62.6176977,16 L62.970432,13.9759766 L57.7801977,13.9759766 L59.552268,3.771875 L57.0915258,3.771875 L54.9667211,16 L62.6176977,16 Z M67.4067821,16.1679688 C68.084256,16.1847656 68.7015412,16.0727865 69.2586375,15.8320312 C69.8157339,15.591276 70.298644,15.2595378 70.707368,14.8368164 C71.116092,14.4140951 71.4478302,13.9185872 71.7025828,13.350293 C71.9573355,12.7819987 72.1239045,12.1759115 72.2022899,11.5320312 L72.2022899,11.5320312 L72.2190868,11.3472656 C72.2806753,10.7425781 72.2512808,10.1658854 72.1309032,9.6171875 C72.0105256,9.06848958 71.8019644,8.58277995 71.5052196,8.16005859 C71.2084748,7.73733724 70.8221466,7.39860026 70.3462352,7.14384766 C69.8703237,6.88909505 69.3048289,6.75611979 68.6497508,6.74492188 C67.9610789,6.728125 67.3381948,6.84290365 66.7810985,7.08925781 C66.2240021,7.33561198 65.7424917,7.67294922 65.3365672,8.10126953 C64.9306427,8.52958984 64.6017039,9.03069661 64.3497508,9.60458984 C64.0977977,10.1784831 63.9354279,10.7873698 63.8626414,11.43125 L63.8626414,11.43125 L63.8458446,11.6076172 C63.784256,12.2123047 63.8136506,12.7875977 63.9340282,13.3334961 C64.0544058,13.8793945 64.262967,14.3595052 64.5597118,14.7738281 C64.8564565,15.188151 65.2427847,15.5212891 65.7186961,15.7732422 C66.1946076,16.0251953 66.7573029,16.1567708 67.4067821,16.1679688 Z M67.5327586,14.2279297 C67.1856232,14.2167318 66.9154735,14.1229492 66.7223094,13.946582 C66.5291453,13.7702148 66.3905711,13.5532552 66.3065868,13.2957031 C66.2226024,13.038151 66.1792105,12.7596029 66.176411,12.4600586 C66.1736115,12.1605143 66.1862091,11.8763672 66.2142039,11.6076172 L66.2142039,11.6076172 L66.2310008,11.43125 C66.2701935,11.1233073 66.3415802,10.8041667 66.445161,10.4738281 C66.5487417,10.1434896 66.6915151,9.84534505 66.8734813,9.57939453 C67.0554474,9.31344401 67.2808055,9.09788411 67.5495555,8.93271484 C67.8183055,8.76754557 68.1402456,8.6905599 68.5153758,8.70175781 C68.7505321,8.71295573 68.9492951,8.76054687 69.1116649,8.84453125 C69.2740347,8.92851562 69.4070099,9.03909505 69.5105907,9.17626953 C69.6141714,9.31344401 69.6939565,9.47161458 69.7499461,9.65078125 C69.8059357,9.82994792 69.8437287,10.0161133 69.863325,10.2092773 C69.8829214,10.4024414 69.8899201,10.5984049 69.8843211,10.797168 C69.8787222,10.995931 69.8675243,11.1820964 69.8507274,11.3556641 L69.8507274,11.3556641 L69.8255321,11.5320312 C69.7863394,11.8455729 69.7149526,12.1647135 69.6113719,12.4894531 C69.5077912,12.8141927 69.363618,13.1067383 69.1788524,13.3670898 C68.9940868,13.6274414 68.7673289,13.8388021 68.4985789,14.0011719 C68.2298289,14.1635417 67.9078888,14.2391276 67.5327586,14.2279297 Z M75.2528977,16.1679688 C75.7120123,16.1791667 76.1333339,16.096582 76.5168626,15.9202148 C76.9003912,15.7438477 77.2517258,15.4960938 77.5708665,15.1769531 C77.5652675,15.322526 77.568067,15.4611003 77.5792649,15.5926758 C77.5904628,15.7242513 77.6184576,15.860026 77.6632493,16 L77.6632493,16 L79.9896165,16 L79.9980149,15.8404297 C79.9364264,15.6836589 79.8958339,15.5198893 79.8762376,15.3491211 C79.8566412,15.1783529 79.8496425,15.0061849 79.8552415,14.8326172 C79.8608404,14.6590495 79.8748378,14.4854818 79.8972336,14.3119141 C79.9196295,14.1383464 79.9448248,13.9675781 79.9728196,13.7996094 L79.9728196,13.7996094 L80.594304,9.94472656 C80.6446946,9.44082031 80.5971034,8.99290365 80.4515305,8.60097656 C80.3059576,8.20904948 80.0903977,7.8773112 79.8048508,7.60576172 C79.519304,7.33421224 79.1735683,7.12565104 78.7676438,6.98007812 C78.3617193,6.83450521 77.9208014,6.75611979 77.4448899,6.74492188 C76.9969732,6.73932292 76.5406581,6.79111328 76.0759446,6.90029297 C75.611231,7.00947266 75.1871099,7.1844401 74.8035813,7.42519531 C74.4200527,7.66595052 74.1023118,7.97109375 73.8503586,8.340625 C73.5984055,8.71015625 73.461231,9.146875 73.4388352,9.65078125 L73.4388352,9.65078125 L75.815593,9.64238281 C75.8883795,9.27845052 76.0535487,8.99990234 76.3111008,8.80673828 C76.5686529,8.61357422 76.8821946,8.52259115 77.2517258,8.53378906 C77.4588873,8.53938802 77.6310553,8.57998047 77.7682297,8.65556641 C77.9054042,8.73115234 78.0117844,8.83053385 78.0873704,8.95371094 C78.1629563,9.07688802 78.2091477,9.2210612 78.2259446,9.38623047 C78.2427415,9.55139974 78.234343,9.72636719 78.2007493,9.91113281 L78.2007493,9.91113281 L78.0831711,10.4570312 L76.9745774,10.4402344 C76.6386399,10.4402344 76.2971034,10.4612305 75.949968,10.5032227 C75.6028326,10.5452148 75.2682948,10.6138021 74.9463547,10.7089844 C74.6244146,10.8041667 74.3206711,10.9287435 74.0351243,11.0827148 C73.7495774,11.2366862 73.499024,11.4284505 73.2834641,11.6580078 C73.0679042,11.8875651 72.8943365,12.1549154 72.762761,12.4600586 C72.6311855,12.7652018 72.5569993,13.1165365 72.5402024,13.5140625 C72.5234055,13.9059896 72.5849941,14.2643229 72.724968,14.5890625 C72.864942,14.9138021 73.0595058,15.1923503 73.3086594,15.424707 C73.5578131,15.6570638 73.8489589,15.8376302 74.1820969,15.9664062 C74.5152349,16.0951823 74.8721685,16.1623698 75.2528977,16.1679688 Z M75.8407883,14.3287109 C75.5440435,14.323112 75.310287,14.2321289 75.1395188,14.0557617 C74.9687506,13.8793945 74.9057623,13.6400391 74.950554,13.3376953 C74.9841477,13.0689453 75.0709316,12.8421875 75.2109055,12.6574219 C75.3508795,12.4726562 75.520248,12.3214844 75.719011,12.2039062 C75.917774,12.0863281 76.1375331,12.000944 76.3782883,11.9477539 C76.6190435,11.8945638 76.8597987,11.8651693 77.100554,11.8595703 L77.100554,11.8595703 L77.9236008,11.8679687 L77.6296555,13.4384766 C77.4056972,13.7072266 77.1411464,13.9255859 76.8360032,14.0935547 C76.5308599,14.2615234 76.1991217,14.3399089 75.8407883,14.3287109 Z M83.2669821,16 L84.4007712,9.58359375 C84.6191305,9.32044271 84.864085,9.10768229 85.1356344,8.9453125 C85.4071839,8.78294271 85.7193258,8.70735677 86.0720602,8.71855469 C86.3072165,8.72415365 86.5003805,8.76334635 86.6515524,8.83613281 C86.8027243,8.90891927 86.9175029,9.00970052 86.9958883,9.13847656 C87.0742738,9.2672526 87.1232647,9.42122396 87.142861,9.60039062 C87.1624574,9.77955729 87.1582581,9.97832031 87.1302633,10.1966797 L87.1302633,10.1966797 L86.1560446,16 L88.524404,16 L89.4818258,10.221875 C89.5266175,9.77955729 89.523818,9.35123698 89.4734274,8.93691406 C89.4230368,8.52259115 89.3082581,8.15445964 89.1290915,7.83251953 C88.9499248,7.51057943 88.6993714,7.2516276 88.3774313,7.05566406 C88.0554912,6.85970052 87.642568,6.75611979 87.1386618,6.74492188 C86.6011618,6.73372396 86.1126527,6.83590495 85.6731344,7.05146484 C85.2336162,7.26702474 84.8402894,7.57636719 84.493154,7.97949219 L84.493154,7.97949219 L84.6947165,6.90449219 L82.477529,6.91289063 L80.8986227,16 L83.2669821,16 Z" id="Meta" stroke="#FDDB06" stroke-width="0.8" fill="#570000"></path>
                        <g id="Meta">
                            <use fill="#FFFFFF" xlink:href="#path-7"></use>
                            <use fill="url(#linearGradient-6)" xlink:href="#path-7"></use>
                        </g>
                    </g>
                </g>
            </g>
        </g>
    </g>
</svg>
