<?xml version="1.0" encoding="UTF-8"?>
<svg width="220px" height="55px" viewBox="0 0 220 55" version="1.1" xmlns="http://www.w3.org/2000/svg" xmlns:xlink="http://www.w3.org/1999/xlink">
    <title>Group</title>
    <g id="登录页" stroke="none" stroke-width="1" fill="none" fill-rule="evenodd">
        <g id="启动页" transform="translate(-70.000000, -200.000000)">
            <g id="编组-2" transform="translate(41.000000, 200.000000)">
                <g id="Group" transform="translate(29.000000, 0.000000)">
                    <path d="M23.5314844,7.07845449 L25.0036206,0.890584773 L25.0036206,0.890584773 L15.584432,0.890584773 C13.7319237,0.890584773 12.1217994,2.16258865 11.6930419,3.9647967 L10.2209058,10.1526664 L10.2209058,10.1526664 L19.6400944,10.1526664 C21.4926027,10.1526664 23.1027269,8.88066254 23.5314844,7.07845449 Z" id="Path" fill="#FFC049"></path>
                    <polygon id="Path" fill="#DE2211" fill-rule="nonzero" points="12.5792028 53.1144759 21.5797019 15.2824347 9.00049911 15.2824347 2.29489335e-13 53.1144759"></polygon>
                    <path d="M42.4499869,54.040684 C47.3849155,54.040684 51.6571067,53.4054002 55.2665607,52.1348326 C58.8760146,50.864265 61.8957995,48.9227902 64.3259155,46.3104082 C66.7560315,43.6980262 68.3270414,40.8956528 69.0389453,37.9032879 C69.8242996,34.6021871 69.728199,31.8294998 68.7506435,29.5852262 C67.7730881,27.3409525 66.1011923,25.5716575 63.7349561,24.2773409 C61.3687199,22.9830244 57.5392467,21.7302685 52.2465366,20.5190732 C46.9538265,19.3078779 43.7168022,18.1441804 42.5354636,17.0279809 C41.6076725,16.1492706 41.2906778,15.0924433 41.5844794,13.8574991 C41.9065312,12.5038102 42.7707847,11.423234 44.1772399,10.6157705 C46.362816,9.35707735 49.1221114,8.72773078 52.455126,8.72773078 C55.6847913,8.72773078 57.9672021,9.31551673 59.3023582,10.4910886 C60.6375143,11.6666605 61.2313202,13.5962609 61.0837759,16.2798897 L72.6657226,15.8167856 C73.6261676,11.0195023 72.6460637,7.1840505 69.725411,4.3104303 C66.8047582,1.4368101 61.7788813,0 54.6477803,0 C50.2812728,0 46.4101633,0.605597646 43.0344516,1.81679294 C39.65874,3.02798823 36.8751102,4.79134608 34.6835623,7.10686649 C32.4920143,9.4223869 31.0798386,11.910087 30.4470351,14.5699669 C29.4639297,18.7022802 30.3745695,22.205247 33.1789543,25.0788672 C35.1734346,27.121275 39.0786402,28.8430722 44.8945711,30.2442589 C49.4145744,31.3367096 52.2954961,32.0966752 53.5373363,32.5241559 C55.348422,33.165377 56.5448709,33.9194054 57.1266831,34.7862412 C57.7084954,35.6530771 57.8525007,36.7039671 57.5586991,37.9389113 C57.1010466,39.8625744 55.7647039,41.5428111 53.5496712,42.9796212 C51.3346384,44.4164313 48.3797535,45.1348363 44.6850164,45.1348363 C41.1969779,45.1348363 38.6180261,44.3273728 36.948161,42.7124457 C35.278296,41.0975187 34.5171055,38.5682579 34.6645896,35.1246635 L23.265565,36.1221184 C22.6249398,41.9643545 23.8664932,46.4113411 26.9902253,49.4630783 C30.1139574,52.5148155 35.2672112,54.040684 42.4499869,54.040684 Z" id="Path" fill="#DE2211" fill-rule="nonzero"></path>
                    <polygon id="Path" fill="#DE2211" fill-rule="nonzero" points="127.61191 53.1144759 140.036328 0.890584773 127.457125 0.890584773 115.032707 53.1144759"></polygon>
                    <path d="M161.984936,14.4274733 C168.108381,14.4274733 172.497845,16.2858269 175.153329,20.002534 C177.808812,23.7192411 178.146562,29.4130464 176.166578,37.08395 L176.166578,37.08395 L148.882365,37.08395 C148.253624,40.0525659 148.582627,42.362149 149.869376,44.0126995 C151.156125,45.6632499 153.052609,46.4885252 155.55883,46.4885252 C157.264093,46.4885252 158.799765,46.0610445 160.165845,45.2060831 C161.531926,44.3511217 162.738097,42.9736839 163.784358,41.0737697 L163.784358,41.0737697 L174.237706,42.7480691 C171.972386,46.4054039 169.107288,49.1899656 165.642412,51.1017543 C162.177537,53.0135429 158.184333,53.9694373 153.662802,53.9694373 C146.505864,53.9694373 141.72054,51.8201593 139.306832,47.5216035 C137.413168,44.078009 137.090664,39.7319553 138.339321,34.4834424 C139.830929,28.2137256 142.781848,23.3036349 147.192078,19.7531703 C151.602308,16.2027056 156.533261,14.4274733 161.984936,14.4274733 Z M160.821652,22.0865024 C158.444619,22.0865024 156.291706,22.8820914 154.362915,24.4732696 C152.434123,26.0644477 151.15777,28.2256001 150.533853,30.9567267 L150.533853,30.9567267 L166.811367,30.9567267 C167.423158,28.0593576 167.133323,25.8566446 165.941861,24.3485877 C164.750398,22.8405308 163.043662,22.0865024 160.821652,22.0865024 Z" id="Combined-Shape" fill="#DE2211" fill-rule="nonzero"></path>
                    <path d="M211.900403,53.1144759 L213.993739,44.3154983 L197.134886,44.3154983 C196.411441,44.3154983 194.51846,44.3986196 191.455943,44.5648621 L198.311681,39.0432365 L218.012932,22.3714895 L219.699466,15.2824347 L185.671712,15.2824347 L183.697027,23.5826848 L198.247471,23.511438 C200.320106,23.4876891 201.997914,23.4401912 203.280893,23.3689444 C201.800987,24.485144 199.478604,26.3731838 196.313743,29.0330636 L177.015765,45.3129533 L175.15973,53.1144759 L211.900403,53.1144759 Z" id="Path" fill="#DE2211" fill-rule="nonzero"></path>
                    <g id="金币" transform="translate(74.569816, 13.905080)">
                        <path d="M17.5269866,38.8417417 C28.2009351,38.8417417 37.7018008,30.1467216 38.7477642,19.4208708 C39.7937276,8.69502004 31.9887035,0 21.3147551,0 C10.6408066,0 1.13994081,8.69502004 0.0939774266,19.4208708 C-0.951985954,30.1467216 6.85303811,38.8417417 17.5269866,38.8417417 Z" id="Oval" fill="#FFEA91" fill-rule="nonzero"></path>
                        <path d="M17.136035,33.7754275 C24.9615643,33.7754275 32.3283651,27.3486736 33.590245,19.4208708 C34.852125,11.4930681 29.5312359,5.06631413 21.7057066,5.06631413 C13.8801774,5.06631413 6.5133766,11.4930681 5.25149662,19.4208708 C3.98961664,27.3486736 9.31050571,33.7754275 17.136035,33.7754275 Z" id="Oval" fill="#FFC049"></path>
                        <path d="M18.8664774,31.0391611 L19.4482674,28.1710599 C22.7271916,27.7869392 25.4215074,25.8663357 26.0552429,22.742154 C26.3824998,21.128847 26.2120852,19.8228366 25.4259834,18.9009469 C24.8031895,18.1839216 23.8467615,17.7229768 22.234184,17.4668963 L21.2922456,17.313248 L22.1960979,12.8574478 C23.2304442,12.934272 24.4177093,13.2671766 25.0965491,14.0866341 L27.8019834,11.858734 C26.6892657,10.5271156 25.2314306,9.88691441 23.1831516,9.75887417 L23.6454669,7.479758 L21.0590541,7.479758 L20.5915443,9.78448222 C17.1897744,10.1429949 14.7508097,12.3196789 14.153436,15.2646043 C13.8417628,16.8010871 14.0433447,17.9534492 14.7374035,18.8241228 C15.3498082,19.5923642 16.4647143,20.1557412 17.9596407,20.3606056 L18.75832,20.4630378 L17.8181058,25.0980943 C16.292012,25.0468782 14.9154662,24.6371494 14.0580995,23.5616115 L11.2858655,25.8663357 C12.607548,27.5564668 14.3982876,28.1966679 16.8410765,28.2734921 L16.2800647,31.0391611 L18.8664774,31.0391611 Z M19.4284174,17.1595997 C18.7321703,17.0571675 18.2155443,16.8266951 17.8837338,16.4425744 C17.5723369,16.0840618 17.5173851,15.5975089 17.6108871,15.136564 C17.8394475,14.00981 18.7690848,13.0879203 20.2959079,12.8830559 L19.4284174,17.1595997 Z M19.7234903,25.0468782 L20.6169536,20.6422941 C21.2619846,20.7447263 21.8866021,20.8215504 22.3000665,21.3081033 C22.6114635,21.666616 22.6816342,22.204385 22.5517703,22.8445861 C22.2972372,24.0993804 21.296335,24.8676218 19.7234903,25.0468782 Z" id="$" fill="#FFEA91" fill-rule="nonzero"></path>
                    </g>
                </g>
            </g>
        </g>
    </g>
</svg>